<svg width="397" height="482" viewBox="0 0 397 482" fill="none" xmlns="http://www.w3.org/2000/svg">
<g clip-path="url(#clip0_2_251)">
<g style="mix-blend-mode:multiply">
<path d="M312.829 392.817C313.097 343.107 243.578 302.432 157.553 301.967C71.5286 301.501 1.57367 341.421 1.30487 391.131C1.03608 440.84 70.5552 481.516 156.58 481.981C242.605 482.447 312.56 442.527 312.829 392.817Z" fill="#BCBCBC"/>
</g>
<path d="M80.6836 309.628C57.7111 309.628 39.0174 298.772 38.9665 285.52C38.9155 272.269 57.4565 261.514 80.4289 261.565C103.401 261.565 122.095 272.422 122.146 285.673C122.197 298.925 103.656 309.679 80.6836 309.628Z" fill="#2C2C2C"/>
<g style="mix-blend-mode:multiply">
<path d="M352.991 462.428C330.018 462.428 311.325 451.572 311.274 438.321C311.223 425.069 329.764 414.315 352.736 414.366C375.708 414.366 394.402 425.222 394.453 438.474C394.504 451.725 375.963 462.479 352.991 462.428Z" fill="#BCBCBC"/>
</g>
<g style="mix-blend-mode:multiply">
<path d="M280.763 468.443C261.101 470.227 245.922 465.334 246.89 457.536C247.858 449.738 264.565 441.99 284.277 440.258C303.939 438.474 319.118 443.367 318.15 451.165C317.182 458.963 300.475 466.71 280.763 468.443Z" fill="#BCBCBC"/>
</g>
<path d="M376.065 433.275C374.078 426.904 364.451 422.011 352.787 421.96C341.173 421.96 331.546 426.802 329.662 433.173H329.305V435.518C329.305 443.01 339.9 449.126 352.94 449.177C365.98 449.228 376.473 443.112 376.422 435.62V433.275H376.065Z" fill="#8997BA"/>
<path d="M352.94 446.832C339.951 446.832 329.356 440.716 329.305 433.173C329.254 425.63 339.798 419.565 352.787 419.616C365.776 419.616 376.371 425.732 376.422 433.275C376.422 440.767 365.929 446.883 352.94 446.832Z" fill="#ABB5CE"/>
<path d="M352.889 439.748C346.318 439.748 341.021 436.639 340.97 432.867C340.97 429.096 346.267 426.038 352.787 426.038C359.358 426.038 364.655 429.147 364.706 432.918C364.706 436.69 359.409 439.748 352.889 439.748Z" fill="#8997BA"/>
<path d="M340.97 432.867V387.608H364.757V432.918L340.97 432.867Z" fill="#8997BA"/>
<path d="M311.274 335.621V383.837C311.325 397.088 330.018 407.893 352.991 407.944C375.963 407.944 394.555 397.241 394.453 383.989V335.774L311.223 335.621H311.274Z" fill="#662ED1"/>
<path d="M352.991 359.729C330.018 359.729 311.325 348.873 311.274 335.621C311.223 322.37 329.764 311.616 352.736 311.667C375.708 311.667 394.402 322.523 394.453 335.774C394.504 349.026 375.963 359.78 352.991 359.729Z" fill="#7745D6"/>
<path d="M352.991 355.04C332.158 355.04 315.247 345.203 315.196 333.175C315.145 321.146 331.954 311.412 352.787 311.463C373.62 311.463 390.531 321.299 390.582 333.328C390.633 345.356 373.824 355.091 352.991 355.04Z" fill="#8356D9"/>
<path d="M103.758 283.278C101.771 276.907 92.1444 272.014 80.4799 271.963C68.8154 271.912 59.2393 276.805 57.3547 283.176H56.9981V285.52C56.9981 293.012 67.5929 299.128 80.6327 299.179C93.6215 299.179 104.165 293.114 104.114 285.622V283.278H103.758Z" fill="#7E8DB3"/>
<path d="M80.6327 296.835C67.6439 296.835 57.049 290.719 56.9981 283.176C56.9981 275.683 67.4911 269.567 80.4799 269.618C93.4687 269.669 104.064 275.734 104.114 283.278C104.114 290.77 93.6215 296.886 80.6327 296.835Z" fill="#96A2C1"/>
<path d="M80.6327 289.75C74.0618 289.75 68.7644 286.641 68.7135 282.87C68.7135 279.098 74.0109 276.04 80.5308 276.04C87.1016 276.04 92.399 279.149 92.45 282.921C92.45 286.692 87.1526 289.75 80.6327 289.75Z" fill="#334C87"/>
<path d="M68.7135 282.87V237.662H92.45V282.921L68.7135 282.87Z" fill="#334C87"/>
<path d="M38.9665 185.624V233.839C39.0175 247.091 57.7112 257.896 80.6836 257.947C103.656 257.947 122.248 247.244 122.146 233.992V185.777L38.9156 185.624H38.9665Z" fill="#52689A"/>
<path d="M80.6836 209.731C57.7112 209.731 39.0175 198.875 38.9665 185.624C38.9156 172.372 57.4565 161.618 80.4289 161.669C103.401 161.669 122.095 172.525 122.146 185.777C122.197 199.028 103.656 209.782 80.6836 209.731Z" fill="#6A7CA8"/>
<path d="M80.6836 205.093C59.8506 205.093 42.9396 195.257 42.8887 183.228C42.8377 171.2 59.6468 161.465 80.4799 161.516C101.313 161.516 118.224 171.353 118.275 183.381C118.326 195.41 101.517 205.144 80.6836 205.093Z" fill="#7E8DB3"/>
<path d="M297.775 319.668C295.789 313.297 286.162 308.405 274.497 308.354C262.884 308.354 253.257 313.196 251.372 319.566H251.016V321.911C251.016 329.403 261.61 335.519 274.65 335.57C287.639 335.57 298.183 329.505 298.132 322.013V319.668H297.775Z" fill="#7E8DB3"/>
<path d="M274.701 333.277C261.712 333.277 251.117 327.161 251.067 319.617C251.016 312.074 261.56 306.009 274.548 306.06C287.537 306.06 298.132 312.176 298.183 319.719C298.183 327.212 287.69 333.328 274.701 333.277Z" fill="#96A2C1"/>
<path d="M274.65 326.192C268.079 326.192 262.782 323.083 262.731 319.312C262.731 315.54 268.028 312.482 274.548 312.482C281.119 312.482 286.417 315.591 286.467 319.363C286.467 323.134 281.17 326.192 274.65 326.192Z" fill="#334C87"/>
<path d="M262.731 319.312V274.052H286.467V319.363L262.731 319.312Z" fill="#334C87"/>
<path d="M232.984 222.015V270.23C233.035 283.481 251.729 294.287 274.701 294.338C297.674 294.338 316.265 283.634 316.164 270.383V222.168L232.933 222.015H232.984Z" fill="#52689A"/>
<path d="M274.752 246.173C251.78 246.173 233.086 235.317 233.035 222.066C232.984 208.814 251.525 198.06 274.497 198.111C297.47 198.162 316.164 208.967 316.215 222.218C316.265 235.47 297.725 246.224 274.752 246.173Z" fill="#6A7CA8"/>
<path d="M274.701 241.484C253.868 241.484 236.957 231.647 236.906 219.619C236.855 207.591 253.664 197.856 274.497 197.907C295.33 197.907 312.241 207.744 312.292 219.772C312.343 231.8 295.534 241.535 274.701 241.484Z" fill="#7E8DB3"/>
<path d="M200.996 387.608C197.277 375.478 178.94 366.253 156.936 366.202C134.931 366.151 116.696 375.325 113.13 387.455H112.468V391.889C112.57 406.109 132.588 417.679 157.241 417.73C181.895 417.73 201.811 406.262 201.709 392.042V387.608H200.996Z" fill="#8997BA"/>
<path d="M157.19 413.296C132.537 413.296 112.519 401.675 112.417 387.455C112.315 373.235 132.231 361.717 156.885 361.768C181.538 361.768 201.556 373.388 201.658 387.608C201.76 401.828 181.844 413.347 157.19 413.296Z" fill="#6A7CA8"/>
<path d="M157.139 397.7C147.411 397.7 139.515 393.113 139.515 387.506C139.515 381.9 147.309 377.364 157.038 377.364C166.766 377.364 174.662 381.951 174.662 387.557C174.662 393.164 166.868 397.7 157.139 397.7Z" fill="#8997BA"/>
<path d="M139.515 387.506V296.988H174.662V387.557L139.515 387.506Z" fill="#8997BA"/>
<path d="M211.693 357.537C211.234 357.996 209.808 359.117 209.095 361.36C208.382 363.653 209.095 365.59 209.4 366.406C209.706 367.221 213.323 370.534 223.714 368.75C234.156 366.966 243.273 360.137 245.107 357.079C246.941 354.02 249.131 349.841 250.252 348.771C251.423 347.65 254.123 346.222 255.243 345.101C256.364 343.98 259.777 340.616 260.082 339.189C260.388 337.762 260.286 332.665 259.573 330.27C258.86 327.925 257.943 325.937 256.007 325.937C254.072 325.937 211.642 357.537 211.642 357.537H211.693Z" fill="#F8F7FB"/>
<path d="M251.882 320.025C252.747 320.79 255.396 320.892 256.211 323.338C257.026 325.784 258.249 329.811 257.994 332.971C257.739 336.131 253.461 340.565 250.557 342.961C247.654 345.356 246.89 352.899 239.708 358.659C232.526 364.418 226.057 367.017 219.486 367.017C212.915 367.017 209.502 365.539 209.808 359.729C210.113 353.919 211.947 353.613 213.832 350.657C215.717 347.701 228.705 334.143 230.132 329.607C231.558 325.071 231.914 322.828 232.526 321.962C233.137 321.095 251.882 320.076 251.882 320.076V320.025Z" fill="#DFDFDF"/>
<path d="M223.714 106.318C223.714 106.318 209.248 121.812 207.719 124.412C206.191 127.011 206.548 131.547 207.108 136.899C207.618 142.25 208.433 144.391 212.457 143.219C216.481 142.047 237.008 123.596 240.319 119.876C243.63 116.155 223.714 106.318 223.714 106.318Z" fill="#FF9C78"/>
<path d="M204.561 304.174C198.958 306.825 192.439 313.196 189.79 314.979C187.141 316.763 174.814 327.772 173.745 329.301C172.675 330.83 172.522 333.735 172.675 335.315C172.828 336.844 175.629 340.412 179.908 340.361C184.187 340.31 195.597 337.813 200.232 331.748C204.867 325.683 210.012 323.389 211.336 322.981C212.66 322.574 225.7 319.261 225.904 314.47C226.108 309.679 225.445 305.143 223.255 301.83C221.065 298.517 204.612 304.225 204.612 304.225L204.561 304.174Z" fill="#919CBE"/>
<path d="M222.186 309.169C227.941 309.679 227.585 312.839 228.043 315.846C228.502 318.802 228.349 319.77 228.349 319.77C228.349 319.77 220.657 325.581 216.481 326.651C212.304 327.721 211.896 327.314 208.789 328.944C205.631 330.626 202.779 334.755 195.138 338.424C187.498 342.094 181.436 343.776 176.139 341.89C170.841 340.004 172.217 335.876 172.624 333.379C173.032 330.881 192.642 323.389 192.642 323.389L222.186 309.118V309.169Z" fill="#919CBE"/>
<path d="M266.602 170.028C264.565 170.028 253.41 171.761 247.654 175.328C241.898 178.896 188.109 209.731 183.117 217.682C178.125 225.633 178.023 231.24 183.117 239.242C188.211 247.244 207.618 244.695 210.521 241.892C213.424 239.089 259.675 217.835 270.524 210.7C281.374 203.564 292.631 188.427 291.561 183.279C290.491 178.132 266.653 170.028 266.653 170.028H266.602Z" fill="#143450"/>
<path d="M280.915 183.075C280.915 183.075 267.112 187.561 263.393 193.269C259.675 198.977 261.101 204.839 261.101 204.839C261.101 204.839 231.354 227.264 226.923 234.604C222.491 241.892 222.848 249.384 225.496 255.806C228.145 262.228 253.461 260.444 255.956 258.303C258.452 256.163 279.999 243.523 294.617 234.451C309.236 225.378 319.525 219.109 320.799 201.475C322.072 183.84 315.705 173.341 315.705 173.341L280.966 183.126L280.915 183.075Z" fill="#143450"/>
<path d="M251.831 247.804C254.683 252.595 256.975 260.291 256.822 275.225C256.67 290.209 253.461 317.12 253.461 321.707C253.461 326.294 246.533 329.352 238.689 328.843C230.845 328.333 229.622 323.338 229.622 323.338C229.622 323.338 226.668 269.312 223.765 249.537C234.054 237.101 251.882 247.753 251.882 247.753L251.831 247.804Z" fill="#143450"/>
<path d="M186.835 222.32C185.409 223.034 179.45 222.473 179.501 230.577C179.552 238.681 199.468 302.492 199.824 306.977C200.181 311.463 218.365 314.623 221.727 305.55C218.875 277.926 214.596 239.802 209.248 231.444C203.899 223.085 186.835 222.371 186.835 222.371V222.32Z" fill="#143450"/>
<path d="M257.637 69.9784C248.774 69.5707 242.815 71.7113 236.244 82.7203C229.724 93.7293 220.301 108.357 219.588 110.039C218.875 111.721 225.038 118.041 231.15 120.181C237.263 122.322 240.675 121.609 243.63 120.181C246.584 118.754 262.171 91.2319 262.425 81.0894C262.68 70.9468 257.637 69.9784 257.637 69.9784Z" fill="#37902F"/>
<path d="M282.596 67.9907C295.687 73.4952 309.796 79.0507 312.038 83.7397C314.279 88.4287 320.493 144.85 319.373 156.216C318.71 163.198 319.373 180.629 319.984 183.942C320.595 187.255 305.569 191.026 285.958 189.65C270.015 188.529 255.6 179.763 254.072 174.513C252.544 169.263 244.445 124.157 241.898 106.828C239.351 89.499 246.329 76.7571 248.571 74.1068C250.812 71.4565 256.058 69.112 268.691 69.4688C281.323 69.8255 282.545 68.0417 282.545 68.0417L282.596 67.9907Z" fill="#2C7A23"/>
<path d="M245.362 24.6173C243.783 30.0199 242.611 39.6527 245.667 42.2521C248.723 44.8514 250.659 25.6367 250.302 25.4838C249.946 25.3309 245.362 24.6173 245.362 24.6173Z" fill="#553012"/>
<path d="M252.544 64.4739C257.434 65.5443 260.948 82.2616 261.407 86.1861C261.865 90.1106 274.09 91.9964 279.184 88.4287C284.277 84.861 289.269 76.3494 288.352 73.2913C287.435 70.2333 285.347 66.7675 285.245 61.9765C285.143 57.1856 285.856 42.6598 284.634 39.9586C283.411 37.3083 276.076 35.9321 276.076 35.9321L252.595 64.423L252.544 64.4739Z" fill="#FF9C78"/>
<path d="M277.044 45.0043C277.044 45.0043 275.72 65.0346 273.02 67.8888C270.321 70.7429 260.846 73.6991 255.091 73.6481C251.067 73.6481 246.992 71.6094 246.533 69.9275C246.075 68.2455 243.222 53.414 244.445 40.1115C245.565 28.287 247.297 26.3502 248.978 23.8528C250.659 21.3554 258.605 18.858 268.028 19.9283C277.452 20.9986 277.044 44.9534 277.044 44.9534V45.0043Z" fill="#FF9C78"/>
<path d="M213.679 135.013C213.679 133.025 213.017 125.38 211.183 123.851C209.4 122.322 182.913 118.143 179.297 115.34C175.68 112.536 177.616 110.192 176.19 107.44C174.764 104.687 170.179 100.406 168.804 99.1319C167.429 97.8577 162.742 94.6467 160.858 92.2513C158.973 89.8558 157.343 92.5061 157.802 94.6467C158.26 96.8383 161.52 99.8964 162.539 100.559C163.557 101.222 165.544 103.515 165.544 103.515L163.659 105.911L158.209 103.872C158.209 103.872 148.226 97.9086 146.035 97.2461C143.845 96.5835 142.877 99.3357 143.743 100.202C144.609 101.069 144.966 101.222 144.966 101.222L146.85 102.394C146.85 102.394 143.59 100.457 142.062 100.814C140.84 101.069 140.178 103.158 141.298 103.974C141.757 104.331 142.775 104.993 142.775 104.993C142.775 104.993 140.228 106.726 142.623 108.969C144.507 110.701 147.054 112.231 147.054 112.231C147.054 112.231 145.526 112.791 145.781 114.728C146.137 117.786 154.389 120.997 156.528 122.016C158.668 123.036 161.877 123.953 163.201 124.106C164.525 124.259 168.244 124.463 170.841 125.584C173.439 126.705 186.326 135.93 198.296 140.314C204.867 142.709 210.215 143.525 210.215 143.525C211.54 140.925 213.628 135.013 213.628 135.013H213.679Z" fill="#FF9C78"/>
<path d="M300.119 128.642C300.271 138.632 305.059 159.376 307.453 164.319C309.847 169.314 322.429 165.543 322.429 165.543C322.429 165.543 323.244 161.924 323.397 155.298C323.498 151.374 322.174 127.521 321.104 123.545C320.035 119.57 300.169 128.642 300.169 128.642H300.119Z" fill="#FF9C78"/>
<path d="M307.148 81.5481C302.003 83.5868 295.738 94.188 295.381 105.35C295.025 116.512 297.877 133.127 298.03 134.198C298.183 135.268 322.225 128.744 323.142 128.03C324.008 127.317 321.359 106.114 318.405 96.3796C315.45 86.6448 313.413 83.8926 310.102 81.4971C308.268 81.1403 307.097 81.4971 307.097 81.4971L307.148 81.5481Z" fill="#37902F"/>
<path d="M267.774 33.5366C269.404 34.7089 268.13 37.716 267.978 40.4173C267.876 42.2011 269.302 44.1889 269.709 44.9534C270.626 46.6863 270.779 52.6495 270.779 52.6495L275.007 53.363C275.007 53.363 275.669 47.094 279.285 46.1256C284.277 44.7495 283.921 52.6495 283.564 53.363C283.208 54.0766 281.934 57.2366 282.138 59.7849C282.494 63.9133 285.754 66.2068 285.754 66.2068C285.754 66.2068 287.13 63.1998 291.052 59.3772C297.011 53.6179 305.518 25.7386 287.537 20.3361C282.545 10.2445 266.398 9.73481 258.554 11.5696C250.71 13.4045 247.654 16.9212 245.26 24.7193C245.311 25.178 246.737 28.0322 246.737 28.0322L247.501 26.2483C253.613 30.5805 267.672 33.5876 267.672 33.5876L267.774 33.5366Z" fill="#553012"/>
<path d="M277.757 51.2733C278.216 46.5843 278.878 45.6669 283.157 45.9218C287.435 46.1766 287.384 51.3753 283.615 55.3507C279.897 59.3262 279.184 61.314 276.993 59.9378C274.803 58.5617 277.757 51.2733 277.757 51.2733Z" fill="#FF9C78"/>
<path d="M219.333 383.225C218.263 383.327 212.915 384.754 210.878 389.035C208.84 393.317 211.438 397.292 212.813 398.566C213.934 399.585 220.199 403.357 228.298 401.42C236.397 399.484 242.968 396.629 242.968 396.629C242.968 396.629 260.082 393.52 262.476 389.341C264.87 385.162 263.342 381.951 262.986 381.033C262.629 380.167 254.276 378.536 254.276 378.536L219.282 383.225H219.333Z" fill="#F8F7FB"/>
<path d="M337.812 213.809C332.769 225.022 325.383 240.72 322.989 242.758C319.627 251.933 323.193 262.534 327.013 262.738C330.833 262.891 341.937 251.321 343.924 248.314C345.86 245.307 337.863 213.86 337.863 213.86L337.812 213.809Z" fill="#FF9C78"/>
<path d="M369.036 194.9C361.395 190.007 350.444 191.536 345.503 198.06C340.562 204.584 333.584 215.083 335.163 221.862C336.742 228.64 366.132 215.542 366.132 215.542L368.985 194.951L369.036 194.9Z" fill="#3E8CDA"/>
<path d="M299.1 436.996C306.384 438.525 307.046 439.289 308.014 441.175C308.982 443.061 308.88 447.648 308.88 449.228C308.88 450.808 306.486 454.223 302.105 455.548C297.725 456.873 291.408 457.332 288.607 456.873C287.69 456.72 287.537 455.956 285.143 456.058C283.615 456.109 281.374 457.179 279.642 457.739C276.28 458.81 272.664 460.135 269.557 460.747C265.125 461.613 255.091 462.021 252.595 460.339C249.997 458.555 248.52 454.376 255.142 451.827C261.763 449.279 299.151 437.047 299.151 437.047L299.1 436.996Z" fill="#F8F7FB"/>
<path d="M283.259 433.326C268.843 435.467 260.184 442.755 255.855 445.507C251.525 448.26 251.321 453.509 251.321 454.885C251.321 456.261 251.219 459.167 260.948 458.453C270.677 457.739 274.497 456.516 280.814 453.101C287.13 449.738 305.925 449.432 306.537 444.539C307.148 439.646 306.18 435.874 304.397 433.326C302.614 430.778 296.4 430.37 296.4 430.37L283.309 433.326H283.259Z" fill="#DFDFDF"/>
<path d="M281.068 412.582C281.068 414.468 279.285 429.605 275.924 433.428C272.562 437.251 274.039 440.36 275.924 441.787C277.808 443.214 287.384 441.532 292.733 440.258C298.081 439.034 302.36 438.117 302.105 434.804C301.85 431.491 297.775 422.776 297.775 418.698C297.775 414.621 296.451 408.454 296.451 408.454L281.068 412.531V412.582Z" fill="#FF9C78"/>
<path d="M282.291 346.273C290.237 349.128 293.802 357.843 300.017 354.428C306.231 351.013 341.275 346.273 348.406 345.56C355.538 344.846 373.111 303.053 368.017 291.178C362.923 279.302 339.034 270.281 336.182 275.378C333.329 280.474 326.096 303.767 325.128 311.514C324.161 319.21 286.06 319.566 277.859 326.498C269.658 333.379 269.302 336.946 268.996 339.801C268.691 342.655 282.24 346.324 282.24 346.324L282.291 346.273Z" fill="#082A47"/>
<path d="M289.167 342.604C280.05 334.296 275.873 337.711 273.224 341.279C270.575 344.846 269.149 351.115 270.066 360.035C271.034 368.954 276.484 416.914 277.655 423.489C278.827 430.013 294.057 431.44 300.322 427.057L302.003 424.662C302.003 424.662 302.258 392.96 302.003 378.434C301.749 363.908 299.762 350.045 298.183 346.732C296.655 343.419 289.167 342.553 289.167 342.553V342.604Z" fill="#082A47"/>
<path d="M255.651 374.306C258.758 375.427 261.967 377.007 262.527 382.919C263.037 388.78 254.53 388.424 248.723 391.125C242.917 393.826 228.349 401.624 218.365 398.413C208.382 395.202 210.521 386.487 214.036 383.531C217.499 380.575 235.582 373.031 239.657 373.031C243.732 373.031 255.651 374.306 255.651 374.306Z" fill="#DFDFDF"/>
<path d="M246.329 362.328C242.051 369.617 235.786 374.408 232.271 377.109C228.756 379.81 232.016 384.499 237.772 385.773C243.579 386.997 248.418 383.378 251.423 383.531C254.428 383.684 260.133 380.065 259.98 376.497C259.777 372.929 258.605 368.037 258.605 368.037L246.329 362.328Z" fill="#FF9C78"/>
<path d="M275.975 303.868C269.76 307.232 269.098 307.334 264.208 318.649C259.318 329.964 245.413 359.27 244.241 363.297C243.07 367.323 245.209 371.655 249.233 373.439C253.257 375.223 264.565 372.012 266.246 371.4C267.927 370.789 282.494 338.221 284.888 334.041C287.282 329.862 275.975 303.868 275.975 303.868Z" fill="#143450"/>
<path d="M389.156 285.52C396.287 299.791 395.472 308.863 394.3 320.637C393.129 332.41 386.864 341.126 377.593 345.05C368.323 348.975 350.189 350.555 330.579 345.05C310.968 339.546 288.352 333.022 285.245 332.818C282.138 332.614 267.01 309.628 276.026 303.919C285.041 298.211 338.627 308.303 338.627 308.303C338.627 308.303 352.787 285.826 352.94 284.705C353.093 283.532 389.156 285.571 389.156 285.571V285.52Z" fill="#143450"/>
<path d="M374.028 196.276C382.789 203.513 390.888 212.688 394.097 220.74C397.306 228.793 397.611 243.829 396.338 254.991C395.115 266.152 391.346 289.598 391.397 290.719C391.448 291.84 380.649 295.714 368.934 294.949C357.168 294.185 343.924 288.17 340.715 286.285C337.506 284.399 335.57 281.188 335.316 279.659C335.01 278.13 331.75 257.692 330.884 254.685C330.018 251.678 327.319 240.414 330.171 231.291C333.024 222.168 340.206 208.967 343.058 204.94C345.911 200.914 353.449 194.543 357.473 193.473C361.497 192.402 374.028 196.276 374.028 196.276Z" fill="#5B9DDF"/>
<path d="M349.476 178.233C349.476 178.233 354.111 199.385 354.111 201.73C354.111 204.074 342.243 204.686 336.589 202.086C330.935 199.487 330.986 196.123 330.986 196.123C330.986 196.123 330.833 162.026 341.988 152.291L349.425 178.183L349.476 178.233Z" fill="#553012"/>
<path d="M364.197 257.692C364.197 257.692 356.251 277.671 355.639 284.297C355.028 290.923 365.929 299.842 369.698 296.376C373.467 292.91 385.335 270.943 386.15 266.254C386.965 261.616 364.197 257.641 364.197 257.641V257.692Z" fill="#FF9C78"/>
<path d="M364.808 286.234C364.146 285.367 362.21 283.074 355.792 283.125C349.425 283.125 321.41 298.211 315.043 297.854C308.727 297.548 301.443 295.663 296.757 295.204C292.02 294.745 287.028 298.466 287.028 298.466C287.028 298.466 281.425 299.485 279.235 301.269C277.044 303.104 276.382 304.531 276.382 304.531C276.382 304.531 276.382 305.958 277.859 306.111C279.285 306.264 281.934 304.174 282.647 304.072C283.36 303.97 293.242 307.334 297.775 307.334C302.309 307.334 306.078 309.118 310.102 308.863C314.126 308.608 315.094 308.15 315.094 308.15C315.094 308.15 333.89 307.844 344.79 304.939C355.69 302.034 367.661 298.466 369.8 296.376C370.717 292.35 364.91 286.234 364.91 286.234H364.808Z" fill="#FF9C78"/>
<path d="M343.211 191.995C344.281 192.657 350.597 201.679 351.31 205.399C352.023 209.12 349.527 213.146 349.985 215.032C350.444 216.918 358.339 215.949 362.007 214.369C368.017 211.821 370.768 209.986 372.601 208.814C374.435 207.642 376.727 205.603 376.116 203.921C375.505 202.239 375.607 202.188 374.639 198.111C373.264 192.453 373.416 184.503 373.416 184.503C373.416 184.503 372.245 167.836 364.961 169.824C357.677 171.761 343.211 192.046 343.211 192.046V191.995Z" fill="#FF9C78"/>
<path d="M364.197 177.265C364.197 177.622 358.237 192.759 355.843 195.715C353.449 198.671 342.803 200.965 338.627 198.621C334.45 196.327 332.514 188.886 333.533 177.928C333.991 173.392 337.761 158.458 343.72 155.196C349.68 151.883 360.427 162.79 362.007 163.861C363.586 164.931 364.197 177.316 364.197 177.316V177.265Z" fill="#FF9C78"/>
<path d="M384.419 217.937C368.679 220.587 369.036 228.029 363.84 242.707C359.205 255.806 358.543 260.954 358.135 262.738C357.218 267.019 383.502 273.339 385.998 269.516C387.067 267.885 395.421 244.542 395.981 237.662C397.204 221.811 390.225 219.976 384.419 217.988V217.937Z" fill="#3E8CDA"/>
<path d="M343.975 158.356C349.782 160.548 350.851 164.778 351.106 172.219C351.361 179.253 350.8 182.362 356.149 187.459C355.996 180.119 356.607 177.622 359.714 177.061C362.822 176.552 366.54 182.77 367.151 185.267C367.762 187.764 366.285 189.09 368.526 193.269C369.24 194.594 373.314 196.378 374.028 195.206C375.708 193.626 386.813 180.323 386.558 171.659C386.303 162.994 385.743 155.961 376.523 149.794C368.577 144.493 360.326 143.423 352.074 146.175C343.822 148.927 340.817 151.272 341.173 157.439C343.16 155.553 343.975 158.356 343.975 158.356Z" fill="#553012"/>
<path d="M353.296 174.819C366.081 173.748 354.621 203.004 354.162 205.501C358.95 209.935 385.234 209.324 387.271 201.679C383.451 194.288 387.933 183.432 386.507 169.977C385.183 157.694 353.296 174.819 353.296 174.819Z" fill="#553012"/>
<path d="M357.983 183.228C357.422 179.1 357.269 177.163 359.714 176.704C363.84 175.94 364.808 182.77 362.923 185.879C361.039 188.988 359.969 189.752 358.441 188.58C356.913 187.459 358.237 186.184 358.034 183.228H357.983Z" fill="#FF9C78"/>
<path d="M62.1936 314.113C62.0917 314.928 58.9846 322.013 58.9337 325.581C58.9337 329.148 58.8318 330.525 59.3412 331.544C59.8505 332.563 61.6843 338.424 69.0701 339.495C76.4559 340.514 81.957 333.379 81.957 333.379L82.3645 323.797L74.775 306.264L62.1936 314.164V314.113Z" fill="#F8F7FB"/>
<path d="M87.5091 320.382C87.5091 320.382 83.2814 322.625 82.2117 327.721C81.0911 332.818 81.9061 334.194 83.1795 335.57C84.4529 336.895 86.3885 338.73 94.2328 338.017C102.077 337.303 105.031 330.525 105.693 328.231C106.356 325.937 106.254 319.057 104.929 316.356C103.605 313.654 87.5091 320.331 87.5091 320.331V320.382Z" fill="#F8F7FB"/>
<path d="M77.6274 286.336C77.7292 287.1 80.5308 302.136 79.8686 304.888C79.2064 307.589 68.6625 309.322 66.4723 307.334C64.282 305.347 64.7404 303.919 64.7404 303.919L63.2632 285.622L77.6274 286.336Z" fill="#FF9C78"/>
<path d="M69.121 295.561C65.3008 296.886 63.4161 296.733 62.1936 304.174C60.9711 311.616 59.1884 322.879 59.5959 327.008C60.0033 331.136 63.3142 335.978 70.751 336.946C78.1877 337.915 80.5817 331.697 81.0911 328.69C81.6005 325.683 82.772 307.283 81.9061 300.352C81.0402 293.42 78.9518 293.981 78.4933 293.93C78.0858 293.828 69.0701 295.561 69.0701 295.561H69.121Z" fill="#DFDFDF"/>
<path d="M58.2715 213.044C58.2715 213.044 55.1644 204.737 54.2475 220.231C53.3306 235.674 59.1374 286.539 61.2768 293.216C63.4161 299.893 79.0536 295.968 80.2252 295.204C81.4477 294.388 84.7585 229.966 83.1286 220.333C81.4986 210.7 58.2715 213.095 58.2715 213.095V213.044Z" fill="#143450"/>
<path d="M86.4904 288.629C86.3375 289.649 83.9435 300.301 83.8417 302.9C83.7398 305.499 88.8334 307.181 93.4177 306.264C98.002 305.347 99.6829 303.41 99.6829 300.708C99.6829 298.007 99.9376 287.712 99.9376 287.712L86.4904 288.578V288.629Z" fill="#FF9C78"/>
<path d="M88.9863 293.573C85.3698 293.93 83.4851 293.777 82.6192 299.995C81.8042 306.264 82.0589 319.006 81.957 322.523C81.8552 326.039 82.5683 332.359 86.4904 334.551C90.4634 336.743 101.058 334.347 103.401 329.352C105.744 324.306 103.86 316.305 103.045 313.96C102.23 311.616 101.466 300.148 100.447 296.478C99.4283 292.758 92.45 295.255 92.45 295.255L88.9353 293.573H88.9863Z" fill="#DFDFDF"/>
<path d="M53.0759 130.477C52.974 141.435 41.0549 152.087 42.6849 171.506C44.3148 190.924 52.1591 215.899 55.0625 222.117C57.9658 228.335 71.1584 227.723 76.0483 226.704C80.9892 225.684 83.1285 220.282 83.1285 220.282C83.1285 220.282 81.5495 176.093 81.4986 173.952C81.4986 171.812 85.7263 145.818 82.9248 137.765C80.1233 129.712 53.0759 130.426 53.0759 130.426V130.477Z" fill="#143450"/>
<path d="M78.748 140.925C78.9008 146.888 77.882 169.212 78.748 172.474C79.6648 175.736 81.5495 177.622 81.5495 177.622C81.5495 177.622 81.7023 211.566 83.0266 219.721C84.351 227.876 92.348 231.749 99.4792 231.291C106.61 230.832 110.074 223.798 110.889 220.18C111.704 216.561 124.183 196.225 124.744 177.367C125.304 158.509 120.567 137.154 115.473 132.006C110.38 126.858 78.697 140.976 78.697 140.976L78.748 140.925Z" fill="#143450"/>
<path d="M106.203 215.083C110.278 227.876 110.583 233.177 109.819 248.773C109.055 264.369 103.656 293.573 103.758 294.847C103.86 296.121 91.9915 299.332 88.1713 295.867L84.351 292.401C84.351 292.401 83.1795 260.648 83.3832 244.084C83.587 227.519 82.9248 215.746 82.9248 215.746L106.203 215.083Z" fill="#143450"/>
<path d="M81.0911 177.724C81.0911 177.724 82.9248 183.075 82.9248 184.452C82.9248 185.777 80.2251 185.318 80.2251 185.318C80.2251 185.318 80.378 186.949 78.6461 187.408C76.9143 187.866 75.8446 185.828 75.8446 185.828C75.8446 185.828 74.2146 186.541 73.145 186.133C72.0753 185.726 70.4453 183.177 70.4453 183.177C70.4453 183.177 71.2094 186.184 69.1719 186.388C67.1344 186.592 62.8558 179.864 62.1426 179.406C61.4295 178.896 59.3921 177.469 59.2393 175.226C59.0865 172.984 59.0355 171.812 59.0355 171.812C59.0355 171.812 28.932 146.022 27.0473 137.205C25.1627 128.387 40.138 126.705 42.3792 129.407C44.6205 132.108 66.0138 163.555 69.2738 165.594C72.4828 167.632 77.0161 167.581 78.2386 168.091C79.4611 168.601 83.7907 174.87 83.9945 174.921C84.1982 174.921 85.6754 179.049 86.4394 180.272C87.1525 181.546 84.2491 181.088 83.9435 180.68C83.6888 180.272 81.142 177.673 81.142 177.673L81.0911 177.724Z" fill="#BB4837"/>
<path d="M44.3148 113.097C44.8242 121.201 44.7223 129.865 42.4811 133.535C40.2908 137.205 28.5754 140.772 26.9964 137.205C25.4173 133.637 25.2645 118.703 26.0795 114.269C26.9454 109.886 30.8676 103.821 31.6825 103.617C32.4975 103.362 44.2639 113.097 44.2639 113.097H44.3148Z" fill="#BB4837"/>
<path d="M44.162 74.1068C44.4167 72.3229 43.8564 64.0152 48.237 60.8552C52.6175 57.6953 61.9389 56.1153 66.2685 55.2488C70.5982 54.3824 79.4611 53.2101 88.6297 53.2101C97.7983 53.2101 111.908 57.7972 113.181 58.7146C116.288 61.0591 117.103 104.636 116.9 117.786C116.696 130.885 117.103 132.974 117.154 133.331C118.275 138.734 103.35 145.359 84.4529 144.952C69.9869 144.646 59.2393 139.906 56.6925 137.205C54.1456 134.503 49.3066 105.962 48.9501 104.942C48.5935 103.923 44.213 74.1578 44.213 74.1578L44.162 74.1068Z" fill="#E2343B"/>
<path d="M113.181 58.7146C108.444 60.7533 107.323 72.1191 109.361 80.7326C110.583 85.7274 113.283 108.459 114.964 110.6C116.645 112.74 136.255 104.28 136.255 104.28C136.255 104.28 123.165 74.0049 119.956 67.3281C116.034 59.2752 113.181 58.6636 113.181 58.6636V58.7146Z" fill="#F6393B"/>
<path d="M61.8371 44.7495C63.2633 46.6863 64.0273 55.4017 63.7727 59.683C63.518 63.9643 65.7592 70.641 73.4506 72.0681C81.142 73.4952 89.19 68.3475 91.2784 65.7991C93.3668 63.1997 90.5653 56.7269 89.7503 51.0185C88.9354 45.3101 89.5466 32.3644 88.9863 31.345C88.426 30.3766 61.8371 32.1095 61.7861 44.7495H61.8371Z" fill="#BB4837"/>
<path d="M87.9676 52.5475C89.9541 52.2417 95.1496 53.7198 95.659 56.3701C96.1683 59.0204 93.8253 65.6462 88.2222 69.9784C82.6192 74.2597 70.0888 74.0049 66.2686 69.2139C62.4483 64.423 62.1427 60.3456 63.1105 58.052C64.0273 55.7585 72.7884 54.4843 73.0431 54.4843C73.2978 54.4843 87.9676 52.5475 87.9676 52.5475Z" fill="#BB4837"/>
<path d="M92.0425 58.4598C91.7369 53.1591 85.4207 52.7514 85.4207 52.7514C85.4207 52.7514 87.9166 37.0024 91.6859 37.2573C95.4552 37.5121 97.6455 47.8585 97.6455 47.8585L91.9915 58.4598H92.0425Z" fill="#553012"/>
<path d="M90.7691 23.6489C90.7691 23.6489 93.3668 38.3786 92.0934 43.934C90.8709 49.4385 86.796 55.8095 82.4155 57.2365C78.0349 58.6636 73.7562 58.7656 71.8206 57.9501C69.8851 57.0836 64.8423 53.2101 62.6521 49.9992C60.4618 46.7372 58.7809 41.0798 57.5584 34.9128C56.3359 28.7457 58.1187 17.6348 60.5127 14.6277C62.9067 11.6206 74.4694 8.51158 74.4694 8.51158C74.4694 8.51158 81.3458 10.0406 83.7398 11.2129C86.1338 12.3851 90.7181 23.6999 90.7181 23.6999L90.7691 23.6489Z" fill="#BB4837"/>
<path d="M135.084 104.28C135.084 104.28 139.159 116.716 139.057 121.558C138.955 126.399 137.987 130.681 134.931 133.229C131.824 135.727 121.331 127.266 121.331 127.266L120.516 114.83C120.516 114.83 123.165 108.204 126.425 106.522C129.685 104.84 135.084 104.28 135.084 104.28Z" fill="#BB4837"/>
<path d="M122.299 74.3107C122.299 74.3107 123.47 72.4249 124.387 71.7623C126.577 70.0804 126.985 66.2578 126.781 64.2701C126.577 62.2823 125.406 62.2314 124.387 62.5372C123.368 62.8939 120.974 68.2965 120.465 69.2139C119.956 70.1313 114.353 75.7887 112.876 78.3881C111.398 80.9874 110.329 82.9752 110.583 85.9313C110.634 86.6958 112.061 90.5183 112.926 91.8435C113.792 93.1687 114.455 100.253 114.455 100.253C114.455 100.253 116.645 120.385 118.631 126.96C120.567 133.535 127.087 136.593 131.824 135.166C135.339 134.096 137.936 130.375 138.242 127.776C137.987 124.055 136.816 115.849 132.792 110.141C128.768 104.432 122.095 93.4235 122.095 93.4235L131.824 87.7151C131.824 87.7151 140.432 77.4197 141.247 76.2984C142.062 75.1771 141.094 74.0558 140.279 73.75C139.464 73.4442 133.403 79.3565 133.403 79.3565L141.094 70.2842C141.808 69.4178 141.757 68.1946 140.993 67.3791L139.974 66.3597C139.974 66.3597 141.094 64.7288 140.84 63.8623C140.738 63.5565 140.33 63.0468 139.719 62.8939C138.089 62.3843 137.376 62.9959 136.103 64.1172L126.934 72.17L122.35 74.3616L122.299 74.3107Z" fill="#BB4837"/>
<path d="M49.6632 106.114C49.1538 107.338 46.607 119.009 45.6901 119.009C37.1328 119.213 25.6211 114.83 24.908 113.709C24.1949 112.587 36.6744 77.3687 38.8137 71.8133C40.9021 66.3088 45.1808 62.3333 48.2879 60.8043C49.6632 72.4758 49.7141 106.063 49.7141 106.063L49.6632 106.114Z" fill="#F6393B"/>
<path d="M72.5846 16.5135C71.0565 17.9406 68.4588 20.6928 59.5958 23.2922C57.1508 24.0057 57.2018 28.0322 57.1508 29.4592C57.1508 31.9057 60.3599 45.2592 60.3599 45.2592L56.6924 40.7231C56.6924 40.7231 54.6549 37.3082 53.3815 33.8424C52.1081 30.3767 49.5613 23.3431 52.1591 14.4238C54.7568 5.5045 63.2632 -0.254834 70.4453 1.22322C80.2761 -1.8858 83.9435 1.22322 88.6297 7.03352C93.3158 12.8948 95.7608 28.7967 92.0934 33.2308C90.8709 12.7929 78.1877 18.5012 72.6356 16.5135H72.5846Z" fill="#222222"/>
<path d="M91.3803 27.8283C92.2462 35.3205 93.214 50.0501 90.5143 59.9378C100.09 59.1224 101.771 52.8024 100.804 49.4895C99.8357 46.1766 96.3721 41.5385 95.0986 30.8354C93.8252 20.1322 92.4499 15.5961 92.4499 15.5961L91.3803 27.7773V27.8283Z" fill="#222222"/>
<path d="M51.4969 26.9618C53.9419 32.4663 54.1456 54.6372 50.2235 58.4088C53.8909 64.423 66.2685 63.8623 66.2685 63.8623C66.2685 63.8623 68.5607 57.5933 63.9764 51.5282C59.443 45.463 57.864 33.6895 57.864 33.6895L51.4969 26.9618Z" fill="#222222"/>
<path d="M58.7809 35.5753C58.7809 35.3205 57.7112 32.3644 56.0812 33.5366C54.4512 34.6579 55.6737 38.4805 56.1831 39.5508C56.6415 40.6211 59.1374 44.2908 60.1052 43.6282C61.073 42.9656 59.0355 38.9902 59.0355 38.4295C59.0355 37.8689 58.7809 35.5753 58.7809 35.5753Z" fill="#BB4837"/>
<path d="M93.2649 27.1657C93.2649 27.1657 93.2649 26.0444 92.9593 25.6876C92.2972 24.9231 91.0747 25.6876 91.0237 26.656C91.0237 27.6754 91.5331 34.0463 91.5331 34.505C91.5331 34.9637 92.399 34.1992 92.6028 32.7721C92.8065 31.5489 93.1631 28.1341 93.214 27.1147L93.2649 27.1657Z" fill="#BB4837"/>
<path d="M311.783 232.565C298.845 189.803 234.207 157.184 156.579 157.031C78.9518 156.878 14.6697 189.293 2.19027 232.004H0V244.185C0.254683 294.287 70.8019 335.061 157.547 335.213C244.292 335.366 314.381 294.847 314.126 244.746V232.565H311.732H311.783Z" fill="#B0603D"/>
<path d="M314.206 233.146C314.477 183.042 244.367 142.044 157.611 141.574C70.8543 141.105 0.304754 181.341 0.0338282 231.445C-0.237097 281.548 69.8732 322.546 156.63 323.016C243.386 323.486 313.935 283.249 314.206 233.146Z" fill="#C57347"/>
<path d="M240.828 295.153C220.912 295.153 204.765 285.775 204.714 274.256C204.663 262.738 220.708 253.462 240.625 253.513C260.541 253.564 276.688 262.891 276.739 274.409C276.79 285.877 260.745 295.204 240.828 295.153Z" fill="#88887E"/>
<path d="M276.739 269.771H276.637C275.16 259.017 206.293 258.864 204.816 269.567H204.714V271.3C204.765 282.768 220.963 292.146 240.828 292.197C260.694 292.197 276.739 282.972 276.739 271.555V269.822V269.771Z" fill="#BAC2AF"/>
<path d="M240.828 290.464C220.912 290.464 204.765 281.086 204.714 269.567C204.663 258.049 220.708 248.773 240.625 248.824C260.541 248.824 276.688 258.202 276.739 269.72C276.79 281.188 260.745 290.515 240.828 290.464Z" fill="#CBD1C3"/>
<path d="M240.777 285.469C225.649 285.469 213.373 278.334 213.323 269.618C213.323 260.903 225.496 253.818 240.625 253.869C255.753 253.92 268.028 261.005 268.079 269.72C268.13 278.436 255.906 285.52 240.777 285.469Z" fill="#BAC2AF"/>
<path d="M240.523 256.163L240.93 256.571L260.541 275.225V276.244L216.43 276.346C215.462 276.346 214.749 275.531 214.851 274.562C215.92 265.184 223.612 257.029 236.906 252.493L238.129 253.716L240.574 256.163H240.523Z" fill="#F8D075"/>
<path d="M260.49 275.225L220.301 275.276L260.49 275.225Z" fill="#F8D075"/>
<path d="M240.777 255.398L240.93 255.551L260.541 275.225H220.352C220.555 266.917 227.381 257.233 240.574 254.43L240.828 255.449L240.777 255.398Z" fill="#F8D075"/>
<path d="M240.879 255.5C229.215 259.527 221.32 266.866 221.065 275.276H260.49L240.879 255.5Z" fill="#E8523D"/>
<path d="M220.301 274.562H215.411C215.666 264.98 224.681 256.571 238.078 251.984L240.523 254.43C228.604 258.558 220.556 266 220.301 274.562Z" fill="#FDE598"/>
<path d="M231.66 266.305C233.595 267.427 236.702 267.427 238.638 266.305C240.574 265.184 240.574 263.4 238.638 262.279C236.702 261.158 233.595 261.158 231.66 262.279C229.724 263.4 229.724 265.184 231.66 266.305Z" fill="#FFBD95"/>
<path d="M240.726 271.351C240.472 270.892 240.472 270.383 240.726 269.975C241.592 268.497 243.019 267.682 245.565 267.172C246.279 267.019 247.144 267.019 247.959 267.172C248.978 267.376 249.895 267.732 249.742 268.395C249.386 269.007 247.959 268.905 247.297 269.262C247.246 269.262 247.195 269.312 247.144 269.363C247.501 269.516 247.807 269.669 248.163 269.873C249.233 270.485 250.048 270.536 250.761 270.994C251.27 271.3 250.659 272.116 249.946 272.523C249.284 272.931 247.908 273.288 247.348 272.982C246.533 272.574 246.431 272.065 245.362 271.453C245.056 271.249 244.75 271.096 244.496 270.892C244.445 270.892 244.394 270.943 244.343 270.994C243.681 271.402 243.884 272.218 242.815 272.422C241.694 272.523 241.032 271.963 240.675 271.402L240.726 271.351Z" fill="#9DA1A3"/>
<path d="M240.726 271.045C240.472 270.587 240.472 270.077 240.726 269.669C241.592 268.191 243.019 267.376 245.565 266.866C246.279 266.713 247.144 266.713 247.959 266.866C248.978 267.07 249.895 267.427 249.742 268.089C249.386 268.701 247.959 268.599 247.297 268.956C247.246 268.956 247.195 269.007 247.144 269.058C247.501 269.211 247.807 269.363 248.163 269.567C249.233 270.179 250.048 270.23 250.761 270.689C251.27 270.994 250.659 271.81 249.946 272.218C249.284 272.625 247.908 272.982 247.348 272.676C246.533 272.269 246.431 271.759 245.362 271.147C245.056 270.943 244.75 270.791 244.496 270.587C244.445 270.587 244.394 270.638 244.343 270.689C243.681 271.096 243.884 271.912 242.815 272.116C241.694 272.218 241.032 271.657 240.675 271.096L240.726 271.045Z" fill="#D1D3D4"/>
<path d="M228.654 271.606C229.622 272.167 231.15 272.167 232.118 271.606C233.086 271.045 233.086 270.179 232.118 269.618C231.15 269.058 229.622 269.058 228.654 269.618C227.687 270.179 227.687 271.045 228.654 271.606Z" fill="#36404C"/>
<path d="M115.524 200.608C95.608 200.608 79.4611 191.23 79.4102 179.712C79.3592 168.244 95.4042 158.917 115.32 158.968C135.237 158.968 151.384 168.346 151.435 179.864C151.485 191.332 135.44 200.659 115.524 200.608Z" fill="#88887E"/>
<path d="M151.435 175.226H151.333C149.855 164.472 80.9892 164.319 79.512 175.023H79.4102V176.755C79.4611 188.223 95.6589 197.601 115.524 197.652C135.39 197.652 151.435 188.427 151.435 177.01V175.277V175.226Z" fill="#BAC2AF"/>
<path d="M115.524 195.919C95.608 195.919 79.4611 186.541 79.4102 175.023C79.3592 163.555 95.4042 154.228 115.32 154.279C135.237 154.33 151.384 163.657 151.435 175.175C151.485 186.694 135.44 195.97 115.524 195.919Z" fill="#CBD1C3"/>
<path d="M115.473 190.873C100.345 190.873 88.0694 183.738 88.0184 175.023C88.0184 166.307 100.192 159.223 115.32 159.274C130.449 159.274 142.724 166.409 142.775 175.124C142.775 183.84 130.601 190.924 115.473 190.873Z" fill="#BAC2AF"/>
<path d="M95.608 183.279L96.0155 182.872L115.83 163.096L135.44 182.77L135.848 183.177L138.293 183.84L138.751 184.961C139.159 185.981 138.599 187.153 137.529 187.459C130.958 189.395 123.572 190.466 115.728 190.466C107.935 190.466 100.6 189.446 94.1308 187.561C92.9593 187.204 92.348 185.93 92.8065 184.808L93.214 183.891L95.6589 183.228L95.608 183.279Z" fill="#F8D075"/>
<path d="M115.83 162.128L96.0155 181.903C101.822 183.789 108.546 184.859 115.728 184.859C122.859 184.859 129.634 183.738 135.44 181.852L115.83 162.179V162.128Z" fill="#E8523D"/>
<path d="M95.608 181.546C101.517 183.483 108.393 184.553 115.677 184.553C122.961 184.553 129.837 183.432 135.797 181.495L138.242 183.942C131.569 186.133 123.878 187.357 115.677 187.408C107.476 187.459 99.7848 186.184 93.163 184.044L95.608 181.597V181.546Z" fill="#FDE598"/>
<path d="M118.733 172.831C119.497 173.086 120.058 173.392 120.414 173.799C121.637 175.175 121.637 176.348 120.414 177.724C120.058 178.132 119.497 178.488 118.733 178.692C117.765 178.998 116.645 179.049 115.932 178.59C115.473 178.03 116.594 177.52 116.594 176.959C116.594 176.959 116.594 176.857 116.594 176.806C116.186 176.806 115.728 176.857 115.27 176.857C113.741 176.857 113.13 177.163 112.01 177.112C111.246 177.112 110.736 176.297 110.736 175.736C110.736 175.175 111.296 174.36 112.01 174.36C113.13 174.36 113.741 174.615 115.27 174.615C115.728 174.615 116.186 174.615 116.594 174.666C116.594 174.666 116.594 174.564 116.594 174.513C116.594 173.952 115.473 173.493 115.932 172.882C116.645 172.372 117.765 172.474 118.733 172.729V172.831Z" fill="#9DA1A3"/>
<path d="M118.733 172.474C119.497 172.729 120.058 173.035 120.414 173.443C121.637 174.819 121.637 175.991 120.414 177.367C120.058 177.775 119.497 178.132 118.733 178.335C117.765 178.641 116.645 178.692 115.932 178.233C115.473 177.673 116.594 177.163 116.594 176.603C116.594 176.603 116.594 176.501 116.594 176.45C116.186 176.45 115.728 176.501 115.27 176.501C113.741 176.501 113.13 176.806 112.01 176.755C111.246 176.755 110.736 175.94 110.736 175.379C110.736 174.819 111.296 174.003 112.01 174.003C113.13 174.003 113.741 174.258 115.27 174.258C115.728 174.258 116.186 174.258 116.594 174.309C116.594 174.309 116.594 174.207 116.594 174.156C116.594 173.595 115.473 173.137 115.932 172.525C116.645 172.015 117.765 172.117 118.733 172.372V172.474Z" fill="#D1D3D4"/>
<path d="M105.439 181.037C106.407 181.597 107.935 181.597 108.902 181.037C109.87 180.476 109.87 179.61 108.902 179.049C107.935 178.488 106.407 178.488 105.439 179.049C104.471 179.61 104.471 180.476 105.439 181.037Z" fill="#36404C"/>
<path d="M106.508 302.747C74.6731 302.696 48.7973 287.763 48.6954 269.363C48.5936 250.964 74.3165 236.133 106.101 236.184C137.885 236.235 163.812 251.168 163.914 269.567C164.016 287.967 138.293 302.798 106.458 302.747H106.508Z" fill="#88887E"/>
<path d="M163.914 265.184H163.71C161.316 248.008 51.1913 247.753 48.8482 264.827H48.6445V266.051C48.7463 284.45 74.6221 299.383 106.458 299.434C138.191 299.485 163.863 284.705 163.863 266.407V267.885V265.133L163.914 265.184Z" fill="#BAC2AF"/>
<path d="M106.508 298.262C74.6731 298.211 48.7973 283.278 48.6954 264.878C48.5936 246.479 74.3165 231.647 106.101 231.698C137.885 231.749 163.812 246.683 163.914 265.082C164.016 283.481 138.293 298.313 106.458 298.262H106.508Z" fill="#CBD1C3"/>
<path d="M106.458 294.032C78.697 294.032 56.1321 280.933 56.0303 264.878C55.9284 248.824 78.3914 235.878 106.152 235.929C133.912 235.929 156.477 249.027 156.579 265.082C156.681 281.137 134.218 294.083 106.458 294.032Z" fill="#BAC2AF"/>
<path d="M129.379 239.293C129.99 239.496 130.143 240.261 129.685 240.72L129.328 241.076L126.883 243.523L126.476 243.931L106.661 263.706L87.0507 244.033L86.6432 243.625L84.1982 241.178L84.0963 241.076C83.7398 240.618 83.7398 239.904 84.0963 239.496L84.1473 239.445C91.1256 237.203 98.2058 236.336 106.712 236.336C114.964 236.336 122.452 237.305 129.226 239.395L129.379 239.293Z" fill="#F8D075"/>
<path d="M126.934 242.453L126.527 242.86L106.712 262.636L87.1016 242.962L86.6941 242.555C92.6537 240.618 99.5301 239.496 106.814 239.496C114.098 239.496 120.974 240.567 126.883 242.504L126.934 242.453Z" fill="#F8D075"/>
<path d="M106.814 239.955C99.632 239.955 92.9084 241.076 87.1016 242.962L106.712 262.636L126.527 242.86C120.72 240.975 113.996 239.904 106.814 239.904V239.955Z" fill="#E8523D"/>
<path d="M106.865 235.929C115.066 235.929 122.757 237.152 129.379 239.293L126.934 241.739C121.025 239.802 114.149 238.732 106.865 238.732C99.581 238.732 92.7046 239.853 86.745 241.79L84.3 239.344C90.9727 237.152 98.6642 235.929 106.865 235.878V235.929Z" fill="#FDE598"/>
<path d="M111.246 248.059C113.181 249.18 116.288 249.18 118.224 248.059C120.159 246.938 120.159 245.154 118.224 244.033C116.288 242.911 113.181 242.911 111.246 244.033C109.31 245.154 109.31 246.938 111.246 248.059Z" fill="#FFBD95"/>
<path d="M103.096 255.755C102.332 255.5 101.771 255.194 101.415 254.787C100.192 253.411 100.192 252.238 101.415 250.862C101.771 250.454 102.332 250.098 103.096 249.894C104.063 249.588 105.184 249.537 105.897 249.996C106.356 250.556 105.235 251.066 105.235 251.627C105.235 251.627 105.235 251.729 105.235 251.78C105.643 251.78 106.101 251.729 106.559 251.729C108.087 251.729 108.699 251.423 109.819 251.474C110.583 251.474 111.093 252.289 111.093 252.85C111.093 253.411 110.532 254.226 109.819 254.226C108.699 254.226 108.087 253.971 106.559 253.971C106.101 253.971 105.643 253.971 105.235 253.92C105.235 253.92 105.235 254.022 105.235 254.073C105.235 254.634 106.356 255.093 105.897 255.704C105.184 256.214 104.063 256.112 103.096 255.857V255.755Z" fill="#9DA1A3"/>
<path d="M103.096 255.449C102.332 255.194 101.771 254.889 101.415 254.481C100.192 253.105 100.192 251.933 101.415 250.556C101.771 250.149 102.332 249.792 103.096 249.588C104.063 249.282 105.184 249.231 105.897 249.69C106.356 250.251 105.235 250.76 105.235 251.321C105.235 251.321 105.235 251.423 105.235 251.474C105.643 251.474 106.101 251.423 106.559 251.423C108.087 251.423 108.699 251.117 109.819 251.168C110.583 251.168 111.093 251.984 111.093 252.544C111.093 253.105 110.532 253.92 109.819 253.92C108.699 253.92 108.087 253.665 106.559 253.665C106.101 253.665 105.643 253.665 105.235 253.614C105.235 253.614 105.235 253.716 105.235 253.767C105.235 254.328 106.356 254.787 105.897 255.398C105.184 255.908 104.063 255.806 103.096 255.551V255.449Z" fill="#D1D3D4"/>
<path d="M97.0343 244.899C98.0021 245.46 99.5302 245.46 100.498 244.899C101.466 244.338 101.466 243.472 100.498 242.911C99.5302 242.351 98.0021 242.351 97.0343 242.911C96.0665 243.472 96.0665 244.338 97.0343 244.899Z" fill="#36404C"/>
<path d="M85.5735 284.705L83.1285 287.151L82.6701 287.61C82.1607 288.12 81.4476 288.272 80.7855 288.018C68.9682 283.736 60.6146 276.55 58.628 268.191C58.1696 266.152 58.9846 264.063 60.6655 262.84H65.5554L66.3704 263.553H105.795V264.522L85.981 284.297L85.5735 284.705Z" fill="#F8D075"/>
<path d="M66.3704 263.604H80.0214L105.795 263.553L85.981 283.329C74.3165 279.353 66.5232 272.014 66.3704 263.655V263.604Z" fill="#FDE598"/>
<path d="M85.7772 283.481L85.5735 283.685L85.7772 283.481Z" fill="#F8D075"/>
<path d="M66.3704 263.604L105.795 263.553L80.0214 263.604H66.3704Z" fill="#F8D075"/>
<path d="M65.6063 263.604H66.4213C66.5741 272.014 74.3674 279.302 86.0319 283.278L85.8282 283.481L85.6244 283.685C73.7562 279.608 65.7591 272.167 65.6573 263.604H65.6063Z" fill="#F8D075"/>
<path d="M66.3704 263.604H105.795L85.981 283.278C74.3165 279.302 66.5232 271.963 66.3704 263.604Z" fill="#E8523D"/>
<path d="M66.3704 262.891H65.5554C65.7082 271.453 73.6543 278.894 85.5225 282.972L83.0776 285.418C69.7322 280.882 60.7673 272.523 60.6655 262.891H66.3194H66.3704Z" fill="#FDE598"/>
<path d="M78.3915 274.97C80.327 276.091 83.4342 276.091 85.3698 274.97C87.3054 273.849 87.3054 272.065 85.3698 270.943C83.4342 269.822 80.327 269.822 78.3915 270.943C76.4559 272.065 76.4559 273.849 78.3915 274.97Z" fill="#FFBD95"/>
<path d="M90.2597 268.293C91.2275 268.854 92.7556 268.854 93.7234 268.293C94.6911 267.732 94.6911 266.866 93.7234 266.305C92.7556 265.745 91.2275 265.745 90.2597 266.305C89.2919 266.866 89.2919 267.732 90.2597 268.293Z" fill="#36404C"/>
<path d="M107.629 263.553V264.572L127.24 284.246L127.647 284.654L130.092 287.1C130.398 287.406 130.805 287.661 131.213 287.814C131.773 287.967 132.435 287.967 132.995 287.763C145.679 282.972 153.115 274.766 153.829 265.439C153.829 264.878 153.523 264.012 153.319 263.604C153.166 263.4 152.708 262.789 152.708 262.789L147.054 263.553H109.768L107.629 263.604V263.553Z" fill="#F8D075"/>
<path d="M147.818 263.451L107.629 263.553L147.818 263.451Z" fill="#F8D075"/>
<path d="M147.818 263.451C147.563 272.014 139.515 279.506 127.596 283.583L127.189 283.176L107.578 263.502H147.767L147.818 263.451Z" fill="#F8D075"/>
<path d="M147.003 263.451H107.578L127.189 283.227C138.853 279.2 146.748 271.861 147.003 263.451Z" fill="#E8523D"/>
<path d="M127.596 282.87C127.596 282.87 131.213 284.195 131.366 284.807C143.998 280.118 152.453 271.963 152.657 262.687H147.767C147.563 271.249 139.464 278.741 127.545 282.87H127.596Z" fill="#FDE598"/>
<path d="M130.551 272.931C132.486 274.052 135.593 274.052 137.529 272.931C139.464 271.81 139.464 270.026 137.529 268.905C135.593 267.783 132.486 267.783 130.551 268.905C128.615 270.026 128.615 271.81 130.551 272.931Z" fill="#FFBD95"/>
<path d="M118.173 269.72C119.141 270.281 120.669 270.281 121.637 269.72C122.604 269.16 122.604 268.293 121.637 267.732C120.669 267.172 119.141 267.172 118.173 267.732C117.205 268.293 117.205 269.16 118.173 269.72Z" fill="#36404C"/>
<path d="M127.851 243.778L130.296 241.331L131.569 240.057C144.1 244.338 151.333 251.882 153.217 260.597C153.574 262.279 153.93 263.808 152.148 263.808L107.629 263.91V262.891L127.443 244.135L127.851 243.727V243.778Z" fill="#F8D075"/>
<path d="M127.443 243.166L127.851 242.758V242.045C127.851 242.045 147.818 246.326 147.818 262.84H107.629L127.443 243.166Z" fill="#F8D075"/>
<path d="M107.629 262.942L147.818 262.84L107.629 262.942Z" fill="#F8D075"/>
<path d="M127.443 243.166L107.629 262.942H147.054C146.901 254.481 139.108 247.193 127.443 243.166Z" fill="#E8523D"/>
<path d="M127.851 242.045L130.296 239.598C143.641 244.135 152.555 252.493 152.708 262.126H147.818C147.665 253.564 139.719 246.122 127.851 242.045Z" fill="#FDE598"/>
<path d="M125.151 251.015C125.966 250.862 126.832 250.862 127.545 251.015C130.092 251.474 131.518 252.34 132.384 253.818C132.639 254.226 132.639 254.736 132.384 255.194C132.079 255.806 131.366 256.316 130.245 256.214C129.175 256.01 129.43 255.194 128.717 254.787C128.666 254.787 128.615 254.736 128.564 254.685C128.309 254.889 128.004 255.093 127.698 255.245C126.628 255.857 126.527 256.316 125.712 256.774C125.151 257.08 123.776 256.724 123.114 256.316C122.452 255.908 121.84 255.144 122.35 254.838C123.114 254.379 123.929 254.328 124.948 253.665C125.253 253.462 125.61 253.309 125.966 253.156C125.915 253.156 125.864 253.105 125.813 253.054C125.151 252.646 123.725 252.799 123.368 252.187C123.216 251.525 124.133 251.168 125.202 250.964L125.151 251.015Z" fill="#9DA1A3"/>
<path d="M125.151 250.709C125.966 250.556 126.832 250.556 127.545 250.709C130.092 251.168 131.518 252.034 132.384 253.513C132.639 253.92 132.639 254.43 132.384 254.889C132.079 255.5 131.366 256.01 130.245 255.908C129.175 255.704 129.43 254.889 128.717 254.481C128.666 254.481 128.615 254.43 128.564 254.379C128.309 254.583 128.004 254.787 127.698 254.94C126.628 255.551 126.527 256.01 125.712 256.469C125.151 256.774 123.776 256.418 123.114 256.01C122.452 255.602 121.84 254.838 122.35 254.532C123.114 254.073 123.929 254.022 124.948 253.411C125.253 253.207 125.61 253.054 125.966 252.901C125.915 252.901 125.864 252.85 125.813 252.799C125.151 252.391 123.725 252.544 123.368 251.933C123.216 251.27 124.133 250.913 125.202 250.709H125.151Z" fill="#D1D3D4"/>
<path d="M134.473 259.731C135.44 260.291 136.969 260.291 137.936 259.731C138.904 259.17 138.904 258.303 137.936 257.743C136.969 257.182 135.44 257.182 134.473 257.743C133.505 258.303 133.505 259.17 134.473 259.731Z" fill="#36404C"/>
<path d="M71.2603 233.941C65.6063 237.101 56.6415 236.999 51.1403 233.737C45.6392 230.475 45.792 225.226 51.446 222.066C57.0999 218.906 66.0648 219.008 71.5659 222.269C77.0671 225.531 76.9143 230.781 71.2603 233.941Z" fill="#88887E"/>
<path d="M196.31 277.62C190.656 280.78 181.691 280.678 176.19 277.416C170.689 274.154 170.841 268.905 176.495 265.745C182.149 262.585 191.114 262.687 196.615 265.949C202.117 269.211 201.964 274.46 196.31 277.62Z" fill="#88887E"/>
<path d="M183.728 202.647C178.074 205.807 169.11 205.705 163.608 202.443C158.107 199.181 158.26 193.931 163.914 190.772C169.568 187.612 178.533 187.713 184.034 190.975C189.535 194.237 189.382 199.487 183.728 202.647Z" fill="#88887E"/>
<path d="M318.965 156.725C317.029 154.585 304.55 154.992 304.55 154.992C304.55 154.992 301.596 156.216 295.432 159.172C290.441 161.516 276.229 169.62 261.05 174.309C257.128 175.532 248.367 175.532 245.311 175.481C242.305 175.43 239.759 173.85 239.759 173.85C239.759 173.85 237.416 171.863 235.174 172.117C232.933 172.372 232.526 173.646 233.595 175.379C234.665 177.163 236.601 177.571 236.601 177.571C236.601 177.571 224.07 181.801 222.135 183.585C220.199 185.369 221.32 187.153 224.07 186.541L226.872 185.93C226.872 185.93 221.574 187.408 221.116 189.141C220.657 190.873 222.287 191.383 223.051 191.434C223.815 191.485 225.802 190.721 225.802 190.721C225.802 190.721 224.936 191.179 225.802 192.912C226.668 194.645 229.469 193.575 230.183 193.371C230.896 193.218 244.496 187.561 244.852 187.408C245.209 187.255 246.737 186.694 246.737 186.694C246.737 186.694 236.244 193.218 235.378 194.492C234.563 195.715 236.142 196.888 237.67 196.786C239.198 196.735 248.825 191.434 249.538 191.281C250.252 191.128 257.332 190.568 260.133 190.109C262.935 189.701 265.482 184.808 265.889 184.655C266.297 184.502 300.628 178.081 309.389 174.972C318.099 171.863 319.882 170.028 321.461 167.887C323.04 165.746 323.244 161.72 318.965 156.623V156.725Z" fill="#FF9C78"/>
<path d="M325.587 249.282C325.587 249.282 324.517 244.185 322.989 242.758C321.461 241.331 282.291 233.38 279.082 231.342C275.873 229.303 274.854 228.844 270.881 228.742C266.908 228.64 261.61 229.456 261.407 229.507C261.152 229.558 257.026 228.691 255.651 229.15C254.276 229.609 254.225 231.647 256.771 232.973C259.318 234.298 262.833 233.38 262.833 233.38L266.297 233.686C266.297 233.686 262.476 238.069 260.795 238.273C259.064 238.477 249.589 239.14 246.533 240.567C243.477 241.994 244.394 243.931 245.311 244.389C246.177 244.797 247.858 244.491 247.858 244.491C247.858 244.491 246.839 245.562 250.863 246.02C254.887 246.479 266.195 247.193 269.964 246.836C273.784 246.479 277.095 243.472 279.285 243.319C281.476 243.217 305.365 258.202 310.561 259.374C315.705 260.546 323.651 262.84 327.064 262.687C327.471 256.01 325.638 249.231 325.638 249.231L325.587 249.282Z" fill="#FF9C78"/>
<path d="M194.221 275.327C189.739 277.875 182.506 277.773 178.176 275.174C173.796 272.574 173.898 268.395 178.38 265.847C182.862 263.298 190.095 263.4 194.425 266C198.755 268.599 198.704 272.778 194.221 275.327Z" fill="#C9CDBF"/>
<path d="M197.634 271.045L201.76 236.795C202.066 234.349 200.639 231.851 197.43 229.966C191.522 226.449 181.793 226.347 175.68 229.762C172.319 231.647 170.79 234.196 171.045 236.744L174.967 270.994C174.764 269.16 175.884 267.223 178.38 265.847C182.862 263.298 190.095 263.4 194.425 266C196.768 267.427 197.838 269.262 197.634 271.045Z" fill="#C9CDBF"/>
<path d="M199.57 237.356L198.347 241.994C198.907 239.904 197.787 237.713 195.087 236.031C190.452 233.227 182.812 233.176 178.023 235.878C175.12 237.509 173.949 239.751 174.509 241.943L173.337 237.305C172.726 234.96 174.05 232.463 177.209 230.679C182.455 227.723 190.91 227.825 196.004 230.883C199.009 232.667 200.232 235.113 199.621 237.407L199.57 237.356Z" fill="#C5CBBD"/>
<path d="M194.833 245.969C190.045 248.671 182.404 248.569 177.769 245.816C173.134 243.013 173.235 238.579 178.023 235.929C182.812 233.227 190.452 233.329 195.087 236.082C199.722 238.885 199.621 243.319 194.833 245.969Z" fill="#FEC960"/>
<path d="M199.57 237.764C199.162 239.344 197.838 240.924 195.698 242.096C190.452 245.052 181.997 244.95 176.903 241.892C174.865 240.669 173.694 239.191 173.286 237.662L174.458 242.249L177.463 268.395C177.616 269.567 178.431 270.74 179.959 271.657C183.423 273.696 189.077 273.747 192.591 271.81C194.221 270.892 195.138 269.669 195.291 268.446L198.449 242.147L199.621 237.764H199.57Z" fill="#F4BD60"/>
<path d="M192.388 227.978L192.235 229.252C192.948 229.456 193.661 229.711 194.323 229.966L194.476 228.538C193.814 228.284 193.101 228.08 192.388 227.927V227.978Z" fill="#D5D9CF"/>
<path d="M197.125 242.605C195.851 243.319 194.374 243.88 192.846 244.287C192.133 244.491 191.42 244.644 190.656 244.746C185.409 245.613 179.5 244.797 175.375 242.351C169.466 238.783 169.568 233.176 175.68 229.762C180.265 227.213 186.835 226.602 192.387 227.978L192.235 229.252C187.345 227.876 181.283 228.284 177.157 230.628C171.911 233.584 171.758 238.477 176.903 241.535C180.621 243.778 186.071 244.389 190.808 243.472C191.572 243.319 192.286 243.115 192.999 242.911C193.966 242.605 194.832 242.198 195.698 241.739C200.945 238.783 201.098 233.89 195.953 230.832C195.444 230.526 194.883 230.271 194.323 230.017L194.476 228.589C195.546 228.997 196.564 229.456 197.43 229.966C203.339 233.533 203.237 239.14 197.125 242.555V242.605Z" fill="#D5D9CF"/>
<path d="M190.656 244.746C191.42 244.644 192.133 244.491 192.846 244.287L190.146 270.689L188.007 270.485L190.656 244.746Z" fill="#FC774D"/>
<path d="M210.47 220.18L194.833 224.869L194.425 228.589L194.272 230.017L192.948 242.911C192.235 243.166 191.471 243.319 190.758 243.472L192.235 229.252L192.388 227.978L192.897 223.238L209.859 218.141L210.47 220.18Z" fill="#FC774D"/>
<path d="M181.589 200.251C177.107 202.8 169.874 202.698 165.544 200.099C161.163 197.499 161.265 193.32 165.748 190.772C170.23 188.223 177.463 188.325 181.793 190.924C186.122 193.524 186.071 197.703 181.589 200.251Z" fill="#C9CDBF"/>
<path d="M185.002 195.97L189.128 161.72C189.433 159.274 188.007 156.776 184.798 154.89C178.889 151.374 169.161 151.272 163.048 154.687C159.686 156.572 158.158 159.121 158.413 161.669L162.335 195.919C162.131 194.084 163.252 192.148 165.748 190.772C170.23 188.223 177.463 188.325 181.793 190.924C184.136 192.352 185.206 194.186 185.002 195.97Z" fill="#C9CDBF"/>
<path d="M186.937 162.281L185.715 166.919C186.275 164.829 185.155 162.637 182.455 160.955C177.82 158.152 170.179 158.101 165.391 160.803C162.488 162.434 161.316 164.676 161.877 166.868L160.705 162.23C160.094 159.885 161.418 157.388 164.576 155.604C169.823 152.648 178.227 152.75 183.372 155.808C186.377 157.592 187.6 160.038 186.988 162.332L186.937 162.281Z" fill="#C5CBBD"/>
<path d="M182.2 170.894C177.412 173.595 169.772 173.494 165.137 170.741C160.501 167.938 160.603 163.504 165.391 160.854C170.179 158.152 177.82 158.254 182.455 161.006C187.09 163.81 186.988 168.244 182.2 170.894Z" fill="#FEC960"/>
<path d="M186.937 162.688C186.53 164.268 185.206 165.848 183.066 167.021C177.82 169.977 169.415 169.875 164.271 166.817C162.233 165.594 161.062 164.115 160.654 162.586L161.826 167.174L164.831 193.32C164.984 194.492 165.799 195.664 167.327 196.582C170.79 198.621 176.444 198.671 179.959 196.684C181.589 195.766 182.506 194.543 182.659 193.32L185.817 167.021L186.988 162.637L186.937 162.688Z" fill="#F4BD60"/>
<path d="M176.088 152.291V153.514C176.75 153.565 177.463 153.667 178.176 153.82V152.546C177.514 152.444 176.801 152.342 176.088 152.291Z" fill="#D5D9CF"/>
<path d="M184.492 167.53C182.455 168.652 180.061 169.416 177.514 169.773C176.801 169.875 176.088 169.926 175.375 169.977C170.841 170.232 166.155 169.365 162.742 167.275C156.834 163.759 156.936 158.101 163.048 154.686C166.614 152.648 171.503 151.883 176.088 152.291V153.514C172.013 153.106 167.683 153.769 164.525 155.553C159.279 158.509 159.126 163.402 164.27 166.46C167.276 168.244 171.453 169.008 175.426 168.754C176.139 168.754 176.852 168.601 177.565 168.499C179.551 168.142 181.436 167.53 183.015 166.664C188.262 163.708 188.414 158.815 183.27 155.757C181.793 154.89 180.01 154.228 178.125 153.82V152.546C180.621 152.954 182.862 153.769 184.747 154.89C190.656 158.407 190.554 164.065 184.441 167.479L184.492 167.53Z" fill="#D5D9CF"/>
<path d="M175.375 169.977C176.088 169.977 176.801 169.875 177.514 169.773L176.343 198.621L174.203 198.519L175.375 169.977Z" fill="#FC774D"/>
<path d="M187.752 143.219L178.329 150.609L178.227 152.546V153.82L177.565 168.499C176.852 168.601 176.139 168.703 175.426 168.754L176.037 153.514V152.291L176.19 149.539L186.377 141.537L187.701 143.219H187.752Z" fill="#FC774D"/>
<path d="M69.2229 231.698C64.7404 234.247 57.5074 234.145 53.1778 231.546C48.8482 228.946 48.8991 224.767 53.3816 222.218C57.864 219.67 65.097 219.772 69.4266 222.371C73.8072 224.971 73.7053 229.15 69.2229 231.698Z" fill="#C9CDBF"/>
<path d="M72.6356 227.417L76.7615 193.167C77.0671 190.721 75.6409 188.223 72.4318 186.337C66.5232 182.821 56.7943 182.719 50.6819 186.133C47.3201 188.019 45.792 190.568 46.0467 193.116L49.9688 227.366C49.7651 225.531 50.8857 223.595 53.3815 222.218C57.864 219.67 65.097 219.772 69.4266 222.371C71.7697 223.798 72.8393 225.633 72.6356 227.417Z" fill="#C9CDBF"/>
<path d="M74.5202 193.728L73.2978 198.366C73.8581 196.276 72.7374 194.084 70.0378 192.402C65.4026 189.599 57.7621 189.548 52.974 192.25C50.0707 193.881 48.8991 196.123 49.4594 198.315L48.2879 193.677C47.6766 191.332 49.001 188.835 52.1591 187.051C57.4055 184.095 65.8101 184.197 70.9547 187.255C73.9599 189.039 75.1824 191.485 74.5712 193.779L74.5202 193.728Z" fill="#C5CBBD"/>
<path d="M69.7832 202.341C64.9951 205.042 57.3547 204.94 52.7194 202.188C48.0842 199.385 48.1861 194.951 52.9741 192.301C57.7621 189.65 65.4026 189.701 70.0379 192.453C74.6731 195.257 74.5712 199.691 69.7832 202.341Z" fill="#FEC960"/>
<path d="M74.5202 194.135C74.1127 195.715 72.7884 197.295 70.649 198.468C65.4026 201.424 56.9471 201.322 51.8534 198.264C49.816 197.041 48.6444 195.562 48.2369 194.033L49.4085 198.621L52.4137 224.767C52.5665 225.939 53.3815 227.111 54.9096 228.029C58.3733 230.067 64.0273 230.118 67.5419 228.182C69.1719 227.264 70.0887 226.041 70.2416 224.818L73.3996 198.519L74.5712 194.135H74.5202Z" fill="#F4BD60"/>
<path d="M63.2632 183.687C62.5501 183.687 61.837 183.636 61.1239 183.636L61.2767 184.859C61.9898 184.859 62.7029 184.859 63.416 184.961L63.2632 183.738V183.687Z" fill="#D5D9CF"/>
<path d="M72.0753 198.977C70.0378 200.099 67.5929 200.863 65.0461 201.22C64.3329 201.322 63.6198 201.373 62.9067 201.424C58.3734 201.679 53.7381 200.761 50.3254 198.722C44.4167 195.206 44.5186 189.548 50.631 186.133C53.5344 184.502 57.3037 183.687 61.073 183.636L61.2258 184.859C57.9149 184.859 54.655 185.573 52.1082 187.051C46.8617 190.007 46.7089 194.9 51.8535 197.958C54.8078 199.742 58.8827 200.506 62.8048 200.251C63.518 200.251 64.2311 200.15 64.9442 199.997C67.0326 199.691 69.0191 199.028 70.6491 198.111C75.8956 195.155 76.0484 190.262 70.9038 187.204C68.8154 185.93 66.1667 185.216 63.3651 184.961L63.2123 183.738C66.5742 183.993 69.8341 184.859 72.3809 186.388C78.2896 189.956 78.1877 195.562 72.0753 198.977Z" fill="#D5D9CF"/>
<path d="M64.9442 199.946C64.231 200.048 63.5179 200.15 62.8048 200.2L61.2258 184.859L61.073 183.636L60.7164 180.068L50.2744 170.843L51.7006 169.263L62.7539 179.049L63.2123 183.738L63.3651 184.961L64.8932 199.997L64.9442 199.946Z" fill="#FC774D"/>
<path d="M67.8985 229.099L65.7591 229.303L62.9067 201.424C63.6198 201.424 64.3329 201.322 65.046 201.22L67.8985 229.099Z" fill="#FC774D"/>
</g>
<defs>
<clipPath id="clip0_2_251">
<rect width="397" height="482" fill="white"/>
</clipPath>
</defs>
</svg>
