<svg width="420" height="139" viewBox="0 0 420 139" fill="none" xmlns="http://www.w3.org/2000/svg">
<path d="M122.996 76.3049L105.254 36.4709H113.108L127.403 69.9202H125.03L139.325 36.4709H146.896L129.154 76.3049H122.996ZM160.525 76.87C155.741 76.87 151.993 75.5516 149.281 72.9148C146.569 70.278 145.213 66.6619 145.213 62.0664C145.213 59.0906 145.796 56.4915 146.964 54.2691C148.132 52.0466 149.752 50.3139 151.823 49.0709C153.933 47.8278 156.381 47.2063 159.169 47.2063C161.918 47.2063 164.216 47.7901 166.062 48.9578C167.908 50.1256 169.301 51.7641 170.243 53.8735C171.222 55.983 171.712 58.4502 171.712 61.2753V63.1399H150.919V59.4108H166.683L165.723 60.2018C165.723 57.565 165.158 55.5498 164.028 54.1561C162.935 52.7623 161.335 52.0655 159.225 52.0655C156.89 52.0655 155.082 52.8942 153.801 54.5516C152.558 56.209 151.936 58.5256 151.936 61.5013V62.2359C151.936 65.3247 152.69 67.6413 154.196 69.1856C155.741 70.6924 157.907 71.4457 160.694 71.4457C162.314 71.4457 163.821 71.2386 165.214 70.8242C166.646 70.3722 168.002 69.6565 169.283 68.6771L171.373 73.4233C170.017 74.5157 168.397 75.3632 166.514 75.9659C164.631 76.5686 162.634 76.87 160.525 76.87ZM177.636 76.3049V55.0601C177.636 53.8547 177.599 52.6305 177.523 51.3874C177.486 50.1444 177.392 48.939 177.241 47.7713H184.078L184.869 55.5686H183.739C184.115 53.6852 184.737 52.122 185.603 50.8789C186.507 49.6359 187.6 48.713 188.88 48.1103C190.161 47.5076 191.555 47.2063 193.062 47.2063C193.74 47.2063 194.286 47.2439 194.7 47.3193C195.115 47.357 195.529 47.4511 195.943 47.6018L195.887 53.817C195.171 53.5157 194.549 53.3274 194.022 53.252C193.532 53.1767 192.911 53.139 192.158 53.139C190.538 53.139 189.163 53.478 188.033 54.1561C186.941 54.8341 186.112 55.7758 185.547 56.9812C185.019 58.1865 184.756 59.5614 184.756 61.1058V76.3049H177.636ZM209.947 76.3049L197.63 47.7713H205.145L214.072 70.0897H212.32L221.474 47.7713H228.537L216.163 76.3049H209.947ZM233.506 76.3049V36.4709H237.574L253.564 72.5758H251.925L267.916 36.4709H271.984V76.3049H267.69V42.5166H269.385L254.299 76.3049H251.191L236.048 42.5166H237.743V76.3049H233.506ZM294.042 76.8135C289.597 76.8135 286.094 75.5327 283.533 72.9713C280.971 70.3722 279.691 66.7749 279.691 62.1794C279.691 59.2036 280.256 56.6233 281.386 54.4386C282.516 52.2161 284.098 50.5022 286.132 49.2969C288.166 48.0538 290.501 47.4323 293.138 47.4323C295.737 47.4323 297.922 47.9785 299.692 49.0709C301.463 50.1632 302.819 51.7265 303.761 53.7605C304.702 55.757 305.173 58.13 305.173 60.8798V62.5749H283.194V59.6933H302.178L301.218 60.4278C301.218 57.4143 300.54 55.0601 299.184 53.365C297.828 51.67 295.813 50.8224 293.138 50.8224C290.313 50.8224 288.109 51.8206 286.527 53.817C284.945 55.7758 284.154 58.4314 284.154 61.7839V62.2924C284.154 65.8332 285.021 68.5265 286.753 70.3722C288.524 72.1803 290.991 73.0843 294.155 73.0843C295.85 73.0843 297.432 72.8395 298.901 72.3498C300.408 71.8224 301.839 70.9749 303.195 69.8072L304.778 73.0278C303.535 74.2332 301.952 75.1749 300.031 75.8529C298.148 76.4933 296.152 76.8135 294.042 76.8135ZM324.663 88.9049C322.215 88.9049 319.955 88.6036 317.883 88.0009C315.811 87.3982 313.947 86.4753 312.289 85.2323L313.645 81.7856C314.813 82.6143 315.962 83.2735 317.092 83.7632C318.222 84.2529 319.39 84.6108 320.595 84.8368C321.8 85.1004 323.081 85.2323 324.437 85.2323C327.225 85.2323 329.334 84.4978 330.765 83.0287C332.197 81.5596 332.913 79.4691 332.913 76.7569V68.4511H333.478C332.875 70.6735 331.632 72.4439 329.748 73.7623C327.865 75.043 325.661 75.6834 323.138 75.6834C320.539 75.6834 318.279 75.1184 316.357 73.9883C314.474 72.8206 313.005 71.1821 311.95 69.0726C310.933 66.9256 310.425 64.4018 310.425 61.5013C310.425 58.6386 310.933 56.1525 311.95 54.043C313.005 51.9336 314.474 50.3139 316.357 49.1839C318.279 48.0161 320.539 47.4323 323.138 47.4323C325.699 47.4323 327.903 48.0726 329.748 49.3534C331.632 50.6341 332.875 52.4045 333.478 54.6646L332.913 54.0996L333.421 47.9408H337.885C337.734 49.0332 337.621 50.1444 337.546 51.2744C337.47 52.3668 337.433 53.4404 337.433 54.4951V76.1354C337.433 80.3543 336.34 83.5372 334.156 85.6843C332.009 87.8314 328.844 88.9049 324.663 88.9049ZM323.985 71.9543C326.735 71.9543 328.901 71.0502 330.483 69.2422C332.065 67.3964 332.856 64.8161 332.856 61.5013C332.856 58.1865 332.065 55.6251 330.483 53.817C328.901 52.009 326.735 51.1049 323.985 51.1049C321.273 51.1049 319.107 52.009 317.487 53.817C315.868 55.6251 315.058 58.1865 315.058 61.5013C315.058 64.8161 315.868 67.3964 317.487 69.2422C319.107 71.0502 321.273 71.9543 323.985 71.9543ZM345.317 76.3049V70.5417H351.08V76.3049H345.317ZM359.078 76.3049V54.4951C359.078 53.4404 359.021 52.3668 358.908 51.2744C358.833 50.1444 358.739 49.0332 358.626 47.9408H363.033L363.598 54.1561H362.92C363.748 51.9713 365.067 50.3139 366.875 49.1839C368.721 48.0161 370.849 47.4323 373.26 47.4323C376.612 47.4323 379.136 48.3363 380.831 50.1444C382.564 51.9148 383.43 54.7211 383.43 58.5632V76.3049H378.853V58.8457C378.853 56.1713 378.307 54.2314 377.215 53.026C376.16 51.783 374.503 51.1614 372.243 51.1614C369.606 51.1614 367.515 51.9713 365.971 53.591C364.426 55.2108 363.654 57.3767 363.654 60.0888V76.3049H359.078ZM403.824 76.8135C401.112 76.8135 398.739 76.2296 396.704 75.0619C394.708 73.8565 393.164 72.1614 392.071 69.9767C390.979 67.7543 390.433 65.1363 390.433 62.1229C390.433 59.0717 390.979 56.4538 392.071 54.2691C393.164 52.0843 394.708 50.4081 396.704 49.2404C398.739 48.035 401.112 47.4323 403.824 47.4323C406.574 47.4323 408.947 48.035 410.943 49.2404C412.977 50.4081 414.54 52.0843 415.633 54.2691C416.763 56.4538 417.328 59.0717 417.328 62.1229C417.328 65.1363 416.763 67.7543 415.633 69.9767C414.54 72.1614 412.977 73.8565 410.943 75.0619C408.947 76.2296 406.574 76.8135 403.824 76.8135ZM403.824 73.0843C406.536 73.0843 408.683 72.1614 410.265 70.3157C411.847 68.4323 412.638 65.7013 412.638 62.1229C412.638 58.5067 411.828 55.7758 410.209 53.93C408.626 52.0466 406.498 51.1049 403.824 51.1049C401.149 51.1049 399.021 52.0466 397.439 53.93C395.857 55.7758 395.066 58.5067 395.066 62.1229C395.066 65.7013 395.857 68.4323 397.439 70.3157C399.021 72.1614 401.149 73.0843 403.824 73.0843Z" fill="black"/>
<g clip-path="url(#clip0_4_1292)">
<g style="mix-blend-mode:multiply">
<path d="M73.6482 92.4794C73.7115 80.7764 57.3449 71.2004 37.0924 71.0908C16.8399 70.9811 0.370733 80.3794 0.307452 92.0823C0.244171 103.785 16.6108 113.361 36.8633 113.471C57.1158 113.581 73.585 104.182 73.6482 92.4794Z" fill="#BCBCBC"/>
</g>
<path d="M18.9951 72.8944C13.5868 72.8944 9.18584 70.3386 9.17385 67.2189C9.16186 64.0991 13.5269 61.5673 18.9352 61.5793C24.3435 61.5793 28.7445 64.1351 28.7565 67.2549C28.7685 70.3746 24.4034 72.9064 18.9951 72.8944Z" fill="#2C2C2C"/>
<g style="mix-blend-mode:multiply">
<path d="M83.1035 108.868C77.6952 108.868 73.2942 106.312 73.2823 103.192C73.2703 100.072 77.6353 97.5406 83.0436 97.5526C88.4519 97.5526 92.8529 100.108 92.8649 103.228C92.8769 106.348 88.5118 108.88 83.1035 108.868Z" fill="#BCBCBC"/>
</g>
<g style="mix-blend-mode:multiply">
<path d="M66.0991 110.284C61.4703 110.704 57.8967 109.552 58.1246 107.716C58.3524 105.88 62.2857 104.056 66.9266 103.648C71.5554 103.228 75.129 104.38 74.9011 106.216C74.6733 108.052 70.74 109.876 66.0991 110.284Z" fill="#BCBCBC"/>
</g>
<path d="M88.5353 102.004C88.0677 100.504 85.8012 99.3524 83.0551 99.3404C80.3209 99.3404 78.0545 100.48 77.6108 101.98H77.5269V102.532C77.5269 104.296 80.0211 105.736 83.0911 105.748C86.161 105.76 88.6313 104.32 88.6193 102.556V102.004H88.5353Z" fill="#8997BA"/>
<path d="M83.0911 105.196C80.0332 105.196 77.5389 103.756 77.5269 101.98C77.5149 100.204 79.9972 98.7765 83.0551 98.7885C86.113 98.7885 88.6073 100.228 88.6193 102.004C88.6193 103.768 86.149 105.208 83.0911 105.196Z" fill="#ABB5CE"/>
<path d="M83.079 103.528C81.5321 103.528 80.2849 102.796 80.2729 101.908C80.2729 101.02 81.5201 100.3 83.055 100.3C84.602 100.3 85.8491 101.032 85.8611 101.92C85.8611 102.808 84.614 103.528 83.079 103.528Z" fill="#8997BA"/>
<path d="M80.2729 101.908V91.2531H85.8731V101.92L80.2729 101.908Z" fill="#8997BA"/>
<path d="M73.282 79.014V90.3651C73.294 93.4849 77.695 96.0287 83.1033 96.0407C88.5116 96.0407 92.8886 93.5209 92.8646 90.4011V79.05L73.27 79.014H73.282Z" fill="#662ED1"/>
<path d="M83.1035 84.6895C77.6952 84.6895 73.2942 82.1337 73.2823 79.014C73.2703 75.8942 77.6353 73.3624 83.0436 73.3744C88.4519 73.3744 92.8529 75.9302 92.8649 79.05C92.8769 82.1697 88.5118 84.7015 83.1035 84.6895Z" fill="#7745D6"/>
<path d="M83.1035 83.5856C78.1989 83.5856 74.2176 81.2698 74.2056 78.438C74.1936 75.6062 78.1509 73.3144 83.0555 73.3264C87.9602 73.3264 91.9415 75.6422 91.9535 78.474C91.9655 81.3058 88.0082 83.5976 83.1035 83.5856Z" fill="#8356D9"/>
<path d="M24.4274 66.6909C23.9597 65.191 21.6933 64.0391 18.9472 64.0271C16.201 64.0151 13.9466 65.167 13.5029 66.6669H13.4189V67.2189C13.4189 68.9828 15.9132 70.4226 18.9831 70.4346C22.0411 70.4346 24.5234 69.0068 24.5114 67.2429V66.6909H24.4274Z" fill="#7E8DB3"/>
<path d="M18.9831 69.8827C15.9252 69.8827 13.4309 68.4428 13.4189 66.6669C13.4189 64.9031 15.8893 63.4632 18.9472 63.4752C22.0051 63.4872 24.4994 64.9151 24.5114 66.6909C24.5114 68.4548 22.0411 69.8947 18.9831 69.8827Z" fill="#96A2C1"/>
<path d="M18.9833 68.2148C17.4364 68.2148 16.1892 67.4829 16.1772 66.5949C16.1772 65.707 17.4244 64.9871 18.9593 64.9871C20.5063 64.9871 21.7534 65.719 21.7654 66.6069C21.7654 67.4949 20.5183 68.2148 18.9833 68.2148Z" fill="#334C87"/>
<path d="M16.1772 66.5949V55.9517H21.7654V66.6069L16.1772 66.5949Z" fill="#334C87"/>
<path d="M9.1741 43.7007V55.0518C9.18609 58.1716 13.5871 60.7154 18.9954 60.7274C24.4037 60.7274 28.7807 58.2075 28.7567 55.0878V43.7367L9.16211 43.7007H9.1741Z" fill="#52689A"/>
<path d="M18.9956 49.3762C13.5873 49.3762 9.18633 46.8204 9.17434 43.7007C9.16235 40.5809 13.5274 38.0491 18.9357 38.0611C24.344 38.0611 28.745 40.6169 28.757 43.7367C28.769 46.8564 24.4039 49.3882 18.9956 49.3762Z" fill="#6A7CA8"/>
<path d="M18.9956 48.2843C14.091 48.2843 10.1097 45.9685 10.0977 43.1367C10.0857 40.3049 14.043 38.0131 18.9476 38.0251C23.8523 38.0251 27.8336 40.3409 27.8456 43.1727C27.8575 46.0045 23.9002 48.2963 18.9956 48.2843Z" fill="#7E8DB3"/>
<path d="M70.1042 75.2582C69.6365 73.7584 67.37 72.6065 64.6239 72.5945C61.8898 72.5945 59.6233 73.7344 59.1796 75.2343H59.0957V75.7862C59.0957 77.5501 61.59 78.99 64.6599 79.002C67.7178 79.002 70.2001 77.5741 70.1881 75.8102V75.2582H70.1042Z" fill="#7E8DB3"/>
<path d="M64.6717 78.462C61.6138 78.462 59.1195 77.0221 59.1075 75.2463C59.0955 73.4704 61.5778 72.0425 64.6357 72.0545C67.6936 72.0545 70.1879 73.4944 70.1999 75.2703C70.1999 77.0341 67.7296 78.474 64.6717 78.462Z" fill="#96A2C1"/>
<path d="M64.6596 76.7941C63.1127 76.7941 61.8655 76.0622 61.8535 75.1743C61.8535 74.2863 63.1007 73.5664 64.6356 73.5664C66.1826 73.5664 67.4297 74.2983 67.4417 75.1863C67.4417 76.0742 66.1945 76.7941 64.6596 76.7941Z" fill="#334C87"/>
<path d="M61.8535 75.1743V64.5191H67.4417V75.1863L61.8535 75.1743Z" fill="#334C87"/>
<path d="M54.8509 52.268V63.6191C54.8629 66.7389 59.2638 69.2827 64.6721 69.2947C70.0805 69.2947 74.4575 66.7749 74.4335 63.6551V52.304L54.8389 52.268H54.8509Z" fill="#52689A"/>
<path d="M64.6841 57.9556C59.2758 57.9556 54.8748 55.3998 54.8628 52.28C54.8508 49.1603 59.2158 46.6285 64.6241 46.6405C70.0324 46.6525 74.4334 49.1963 74.4454 52.316C74.4574 55.4358 70.0924 57.9676 64.6841 57.9556Z" fill="#6A7CA8"/>
<path d="M64.6719 56.8517C59.7672 56.8517 55.7859 54.5358 55.774 51.7041C55.762 48.8723 59.7193 46.5805 64.6239 46.5925C69.5286 46.5925 73.5098 48.9083 73.5218 51.7401C73.5338 54.5718 69.5765 56.8637 64.6719 56.8517Z" fill="#7E8DB3"/>
<path d="M47.3198 91.253C46.4444 88.3973 42.1273 86.2254 36.9469 86.2134C31.7664 86.2014 27.4733 88.3613 26.6339 91.217H26.478V92.261C26.502 95.6087 31.2148 98.3325 37.0188 98.3445C42.8229 98.3445 47.5117 95.6447 47.4877 92.297V91.253H47.3198Z" fill="#8997BA"/>
<path d="M37.0067 97.3006C31.2027 97.3006 26.4899 94.5648 26.4659 91.217C26.4419 87.8693 31.1307 85.1575 36.9348 85.1695C42.7388 85.1695 47.4516 87.9053 47.4756 91.253C47.4995 94.6008 42.8107 97.3126 37.0067 97.3006Z" fill="#6A7CA8"/>
<path d="M36.9949 93.6288C34.7044 93.6288 32.8457 92.5489 32.8457 91.229C32.8457 89.9091 34.6804 88.8412 36.9709 88.8412C39.2613 88.8412 41.1201 89.9211 41.1201 91.241C41.1201 92.5609 39.2853 93.6288 36.9949 93.6288Z" fill="#8997BA"/>
<path d="M32.8457 91.229V69.9187H41.1201V91.241L32.8457 91.229Z" fill="#8997BA"/>
<path d="M49.8381 84.1736C49.7302 84.2816 49.3944 84.5455 49.2265 85.0735C49.0586 85.6135 49.2265 86.0694 49.2984 86.2614C49.3704 86.4534 50.2218 87.2333 52.6681 86.8134C55.1265 86.3934 57.273 84.7855 57.7047 84.0656C58.1364 83.3456 58.6521 82.3617 58.9159 82.1097C59.1917 81.8457 59.8273 81.5098 60.0911 81.2458C60.3549 80.9818 61.1583 80.1899 61.2303 79.8539C61.3022 79.5179 61.2783 78.318 61.1104 77.7541C60.9425 77.2021 60.7266 76.7341 60.2709 76.7341C59.8153 76.7341 49.8261 84.1736 49.8261 84.1736H49.8381Z" fill="#F8F7FB"/>
<path d="M59.2998 75.3422C59.5037 75.5222 60.1272 75.5462 60.3191 76.1222C60.511 76.6981 60.7988 77.646 60.7388 78.39C60.6789 79.1339 59.6716 80.1779 58.988 80.7418C58.3045 81.3058 58.1246 83.0816 56.4338 84.4375C54.7429 85.7934 53.22 86.4054 51.673 86.4054C50.1261 86.4054 49.3226 86.0574 49.3946 84.6895C49.4665 83.3216 49.8982 83.2496 50.3419 82.5537C50.7856 81.8577 53.8435 78.666 54.1793 77.598C54.5151 76.5301 54.599 76.0022 54.7429 75.7982C54.8868 75.5942 59.2998 75.3542 59.2998 75.3542V75.3422Z" fill="#DFDFDF"/>
<path d="M52.6684 25.0301C52.6684 25.0301 49.2628 28.6778 48.903 29.2898C48.5433 29.9017 48.6272 30.9696 48.7591 32.2295C48.879 33.4894 49.0709 33.9934 50.0183 33.7174C50.9656 33.4414 55.7983 29.0978 56.5778 28.2218C57.3572 27.3459 52.6684 25.0301 52.6684 25.0301Z" fill="#FF9C78"/>
<path d="M48.1593 71.6105C46.8402 72.2345 45.3053 73.7344 44.6817 74.1543C44.0581 74.5743 41.1561 77.1661 40.9043 77.5261C40.6524 77.8861 40.6165 78.57 40.6524 78.942C40.6884 79.302 41.348 80.1419 42.3553 80.1299C43.3626 80.1179 46.0488 79.5299 47.14 78.102C48.2313 76.6742 49.4424 76.1342 49.7542 76.0382C50.066 75.9422 53.1359 75.1623 53.1839 74.0344C53.2318 72.9064 53.0759 71.8385 52.5603 71.0586C52.0447 70.2786 48.1713 71.6225 48.1713 71.6225L48.1593 71.6105Z" fill="#919CBE"/>
<path d="M52.3088 72.7864C53.6639 72.9064 53.5799 73.6504 53.6878 74.3583C53.7958 75.0543 53.7598 75.2823 53.7598 75.2823C53.7598 75.2823 51.949 76.6501 50.9657 76.9021C49.9824 77.1541 49.8864 77.0581 49.1549 77.4421C48.4114 77.8381 47.7399 78.81 45.9411 79.6739C44.1424 80.5379 42.7153 80.9338 41.4682 80.4899C40.221 80.0459 40.5448 79.074 40.6408 78.486C40.7367 77.8981 45.3535 76.1342 45.3535 76.1342L52.3088 72.7744V72.7864Z" fill="#919CBE"/>
<path d="M62.7652 40.0289C62.2855 40.0289 59.6593 40.4369 58.3042 41.2768C56.9492 42.1168 44.2858 49.3762 43.1106 51.2481C41.9354 53.1199 41.9114 54.4398 43.1106 56.3237C44.3098 58.2075 48.8787 57.6076 49.5622 56.9476C50.2458 56.2877 61.1343 51.2841 63.6886 49.6042C66.2428 47.9243 68.893 44.3606 68.6412 43.1487C68.3894 41.9368 62.7772 40.0289 62.7772 40.0289H62.7652Z" fill="#143450"/>
<path d="M66.1353 43.1007C66.1353 43.1007 62.8855 44.1566 62.0101 45.5005C61.1347 46.8444 61.4705 48.2243 61.4705 48.2243C61.4705 48.2243 54.4673 53.5039 53.424 55.2318C52.3807 56.9477 52.4647 58.7115 53.0882 60.2234C53.7118 61.7353 59.6717 61.3153 60.2593 60.8114C60.8469 60.3074 65.9195 57.3316 69.3611 55.1958C72.8028 53.06 75.2251 51.5841 75.5249 47.4324C75.8247 43.2807 74.3257 40.8089 74.3257 40.8089L66.1473 43.1127L66.1353 43.1007Z" fill="#143450"/>
<path d="M59.2877 58.3395C59.9592 59.4675 60.4988 61.2793 60.4629 64.795C60.4269 68.3228 59.6714 74.6583 59.6714 75.7382C59.6714 76.8181 58.0405 77.5381 56.1938 77.4181C54.347 77.2981 54.0592 76.1222 54.0592 76.1222C54.0592 76.1222 53.3637 63.4032 52.6802 58.7475C55.1025 55.8197 59.2997 58.3275 59.2997 58.3275L59.2877 58.3395Z" fill="#143450"/>
<path d="M43.9862 52.34C43.6504 52.508 42.2474 52.376 42.2594 54.2839C42.2713 56.1917 46.9601 71.2146 47.0441 72.2705C47.128 73.3264 51.4091 74.0703 52.2006 71.9345C51.529 65.431 50.5217 56.4557 49.2626 54.4878C48.0034 52.52 43.9862 52.352 43.9862 52.352V52.34Z" fill="#143450"/>
<path d="M60.6548 16.4748C58.5682 16.3788 57.1652 16.8827 55.6182 19.4745C54.0833 22.0663 51.8648 25.5101 51.6969 25.906C51.529 26.302 52.98 27.7899 54.419 28.2938C55.858 28.7978 56.6615 28.6298 57.357 28.2938C58.0525 27.9579 61.722 21.4784 61.782 19.0906C61.842 16.7027 60.6548 16.4748 60.6548 16.4748Z" fill="#37902F"/>
<path d="M66.5306 16.0068C69.6125 17.3027 72.9342 18.6106 73.4618 19.7145C73.9895 20.8184 75.4525 34.1014 75.1887 36.7772C75.0328 38.4211 75.1887 42.5248 75.3326 43.3047C75.4765 44.0846 71.9389 44.9726 67.322 44.6486C63.5686 44.3846 60.1749 42.3208 59.8152 41.0849C59.4554 39.849 57.5487 29.2298 56.9491 25.1501C56.3495 21.0704 57.9924 18.0706 58.52 17.4467C59.0477 16.8227 60.2828 16.2708 63.2568 16.3547C66.2308 16.4387 66.5186 16.0188 66.5186 16.0188L66.5306 16.0068Z" fill="#2C7A23"/>
<path d="M57.7649 5.79556C57.3932 7.06747 57.1174 9.33529 57.8369 9.94725C58.5564 10.5592 59.0121 6.03554 58.9281 5.99955C58.8442 5.96355 57.7649 5.79556 57.7649 5.79556Z" fill="#553012"/>
<path d="M59.4556 15.1788C60.6068 15.4308 61.4342 19.3665 61.5421 20.2904C61.6501 21.2144 64.5281 21.6583 65.7273 20.8184C66.9265 19.9785 68.1017 17.9746 67.8858 17.2547C67.67 16.5347 67.1783 15.7188 67.1543 14.5909C67.1303 13.463 67.2982 10.0432 67.0104 9.40728C66.7226 8.78333 64.9958 8.45935 64.9958 8.45935L59.4676 15.1668L59.4556 15.1788Z" fill="#FF9C78"/>
<path d="M65.2239 10.5952C65.2239 10.5952 64.9121 15.3108 64.2765 15.9828C63.641 16.6547 61.4105 17.3507 60.0554 17.3387C59.1081 17.3387 58.1487 16.8587 58.0408 16.4628C57.9329 16.0668 57.2613 12.575 57.5491 9.44329C57.813 6.6595 58.2207 6.20354 58.6164 5.61558C59.0121 5.02763 60.8829 4.43967 63.1014 4.69165C65.3198 4.94363 65.2239 10.5832 65.2239 10.5832V10.5952Z" fill="#FF9C78"/>
<path d="M50.3059 31.7856C50.3059 31.3176 50.15 29.5177 49.7183 29.1578C49.2986 28.7978 43.0628 27.8139 42.2114 27.1539C41.36 26.494 41.8157 25.942 41.4799 25.2941C41.1442 24.6461 40.0649 23.6382 39.7411 23.3382C39.4173 23.0382 38.3141 22.2823 37.8704 21.7183C37.4267 21.1544 37.043 21.7783 37.1509 22.2823C37.2588 22.7983 38.0263 23.5182 38.2661 23.6742C38.506 23.8302 38.9736 24.3701 38.9736 24.3701L38.5299 24.9341L37.2468 24.4541C37.2468 24.4541 34.8964 23.0502 34.3808 22.8943C33.8651 22.7383 33.6373 23.3862 33.8411 23.5902C34.045 23.7942 34.129 23.8302 34.129 23.8302L34.5726 24.1062C34.5726 24.1062 33.8052 23.6502 33.4454 23.7342C33.1576 23.7942 33.0017 24.2861 33.2655 24.4781C33.3735 24.5621 33.6133 24.7181 33.6133 24.7181C33.6133 24.7181 33.0137 25.1261 33.5773 25.654C34.021 26.062 34.6206 26.422 34.6206 26.422C34.6206 26.422 34.2609 26.554 34.3208 27.0099C34.4048 27.7299 36.3474 28.4858 36.8511 28.7258C37.3547 28.9658 38.1102 29.1818 38.422 29.2178C38.7338 29.2538 39.6092 29.3018 40.2208 29.5657C40.8324 29.8297 43.8663 32.0016 46.6844 33.0335C48.2313 33.5974 49.4905 33.7894 49.4905 33.7894C49.8022 33.1775 50.2939 31.7856 50.2939 31.7856H50.3059Z" fill="#FF9C78"/>
<path d="M70.6562 30.2857C70.6922 32.6375 71.8195 37.5211 72.3831 38.685C72.9467 39.8609 75.9087 38.973 75.9087 38.973C75.9087 38.973 76.1005 38.1211 76.1365 36.5612C76.1605 35.6373 75.8487 30.0217 75.5969 29.0858C75.345 28.1498 70.6682 30.2857 70.6682 30.2857H70.6562Z" fill="#FF9C78"/>
<path d="M72.311 19.1985C71.0999 19.6785 69.6249 22.1743 69.5409 24.8021C69.457 27.4299 70.1285 31.3416 70.1645 31.5936C70.2005 31.8456 75.8606 30.3097 76.0765 30.1417C76.2803 29.9737 75.6568 24.9821 74.9612 22.6903C74.2657 20.3984 73.786 19.7505 73.0066 19.1865C72.5749 19.1025 72.2991 19.1865 72.2991 19.1865L72.311 19.1985Z" fill="#37902F"/>
<path d="M63.0411 7.89539C63.4248 8.17137 63.125 8.87932 63.0891 9.51527C63.0651 9.93524 63.4009 10.4032 63.4968 10.5832C63.7126 10.9912 63.7486 12.3951 63.7486 12.3951L64.7439 12.563C64.7439 12.563 64.8998 11.0872 65.7512 10.8592C66.9264 10.5352 66.8425 12.3951 66.7586 12.563C66.6746 12.731 66.3748 13.475 66.4228 14.0749C66.5067 15.0468 67.2742 15.5868 67.2742 15.5868C67.2742 15.5868 67.598 14.8789 68.5214 13.9789C69.9244 12.623 71.927 6.05953 67.6939 4.78763C66.5187 2.41181 62.7173 2.29182 60.8706 2.72379C59.0238 3.15576 58.3043 3.98369 57.7407 5.81955C57.7527 5.92754 58.0885 6.59949 58.0885 6.59949L58.2684 6.17953C59.7074 7.19945 63.0171 7.90739 63.0171 7.90739L63.0411 7.89539Z" fill="#553012"/>
<path d="M65.3917 12.0711C65.4996 10.9672 65.6555 10.7512 66.6628 10.8112C67.6701 10.8712 67.6581 12.0951 66.7707 13.031C65.8953 13.9669 65.7275 14.4349 65.2118 14.1109C64.6962 13.7869 65.3917 12.0711 65.3917 12.0711Z" fill="#FF9C78"/>
<path d="M51.637 90.2211C51.3852 90.2451 50.126 90.5811 49.6463 91.589C49.1667 92.5969 49.7783 93.5329 50.102 93.8328C50.3659 94.0728 51.8408 94.9607 53.7475 94.5048C55.6542 94.0488 57.2012 93.3769 57.2012 93.3769C57.2012 93.3769 61.2304 92.6449 61.794 91.661C62.3577 90.6771 61.9979 89.9211 61.914 89.7051C61.83 89.5012 59.8634 89.1172 59.8634 89.1172L51.625 90.2211H51.637Z" fill="#F8F7FB"/>
<path d="M79.53 50.3362C78.3428 52.9759 76.604 56.6717 76.0403 57.1516C75.2489 59.3115 76.0883 61.8073 76.9877 61.8553C77.8871 61.8913 80.5013 59.1675 80.969 58.4595C81.4247 57.7516 79.5419 50.3481 79.5419 50.3481L79.53 50.3362Z" fill="#FF9C78"/>
<path d="M86.8807 45.8845C85.0819 44.7326 82.5037 45.0926 81.3405 46.6284C80.1773 48.1643 78.5344 50.6361 78.9061 52.232C79.2779 53.8279 86.1971 50.7441 86.1971 50.7441L86.8687 45.8965L86.8807 45.8845Z" fill="#3E8CDA"/>
<path d="M70.4161 102.88C72.131 103.24 72.2869 103.42 72.5147 103.864C72.7425 104.308 72.7186 105.388 72.7186 105.76C72.7186 106.132 72.1549 106.936 71.1236 107.248C70.0924 107.56 68.6054 107.668 67.9458 107.56C67.73 107.524 67.694 107.344 67.1304 107.368C66.7706 107.38 66.243 107.632 65.8353 107.764C65.0438 108.016 64.1924 108.328 63.4609 108.472C62.4176 108.676 60.0552 108.772 59.4676 108.376C58.856 107.956 58.5083 106.972 60.0672 106.372C61.6261 105.772 70.4281 102.892 70.4281 102.892L70.4161 102.88Z" fill="#F8F7FB"/>
<path d="M66.6868 102.016C63.2932 102.52 61.2546 104.236 60.2352 104.884C59.2159 105.532 59.168 106.768 59.168 107.092C59.168 107.416 59.144 108.1 61.4344 107.932C63.7249 107.764 64.6243 107.476 66.1112 106.672C67.5982 105.88 72.0232 105.808 72.1671 104.656C72.311 103.504 72.0831 102.616 71.6634 102.016C71.2437 101.416 69.7807 101.32 69.7807 101.32L66.6988 102.016H66.6868Z" fill="#DFDFDF"/>
<path d="M66.171 97.1326C66.171 97.5765 65.7513 101.14 64.9598 102.04C64.1684 102.94 64.5161 103.672 64.9598 104.008C65.4035 104.344 67.658 103.948 68.9171 103.648C70.1763 103.36 71.1836 103.144 71.1236 102.364C71.0637 101.584 70.1043 99.5324 70.1043 98.5725C70.1043 97.6125 69.7925 96.1606 69.7925 96.1606L66.171 97.1206V97.1326Z" fill="#FF9C78"/>
<path d="M66.4587 81.5218C68.3294 82.1937 69.1688 84.2456 70.6318 83.4416C72.0948 82.6377 80.3452 81.5218 82.0241 81.3538C83.7029 81.1858 87.8401 71.3465 86.6409 68.5508C85.4417 65.755 79.8176 63.6311 79.146 64.831C78.4745 66.031 76.7717 71.5145 76.5438 73.3384C76.316 75.1503 67.3461 75.2342 65.4154 76.8661C63.4847 78.486 63.4008 79.3259 63.3288 79.9979C63.2569 80.6698 66.4467 81.5338 66.4467 81.5338L66.4587 81.5218Z" fill="#082A47"/>
<path d="M68.0775 80.6579C65.931 78.702 64.9477 79.5059 64.3241 80.3459C63.7005 81.1858 63.3648 82.6617 63.5806 84.7615C63.8085 86.8614 65.0916 98.1525 65.3674 99.7004C65.6432 101.236 69.2288 101.572 70.7037 100.54L71.0995 99.9764C71.0995 99.9764 71.1594 92.513 71.0995 89.0932C71.0395 85.6735 70.5718 82.4097 70.2001 81.6298C69.8403 80.8498 68.0775 80.6459 68.0775 80.6459V80.6579Z" fill="#082A47"/>
<path d="M60.1871 88.1213C60.9186 88.3852 61.6741 88.7572 61.806 90.1491C61.9259 91.529 59.9232 91.445 58.5562 92.081C57.1891 92.7169 53.7595 94.5528 51.4091 93.7968C49.0587 93.0409 49.5623 90.989 50.3898 90.2931C51.2052 89.5972 55.4623 87.8213 56.4216 87.8213C57.381 87.8213 60.1871 88.1213 60.1871 88.1213Z" fill="#DFDFDF"/>
<path d="M57.9927 85.3015C56.9854 87.0174 55.5104 88.1453 54.683 88.7812C53.8555 89.4172 54.623 90.5211 55.9781 90.8211C57.3451 91.109 58.4844 90.2571 59.1919 90.2931C59.8994 90.3291 61.2425 89.4772 61.2065 88.6372C61.1585 87.7973 60.8827 86.6454 60.8827 86.6454L57.9927 85.3015Z" fill="#FF9C78"/>
<path d="M64.9718 71.5385C63.5088 72.3305 63.353 72.3545 62.2017 75.0183C61.0505 77.6821 57.7768 84.5815 57.501 85.5295C57.2251 86.4774 57.7288 87.4973 58.6761 87.9173C59.6235 88.3373 62.2857 87.5813 62.6814 87.4373C63.0771 87.2933 66.5068 79.6259 67.0704 78.642C67.634 77.6581 64.9718 71.5385 64.9718 71.5385Z" fill="#143450"/>
<path d="M91.6176 67.2189C93.2965 70.5786 93.1046 72.7145 92.8288 75.4863C92.553 78.258 91.078 80.3099 88.8955 81.2338C86.713 82.1577 82.4439 82.5297 77.827 81.2338C73.2102 79.9379 67.8858 78.402 67.1543 78.354C66.4228 78.306 62.8613 72.8945 64.9838 71.5506C67.1064 70.2067 79.7217 72.5825 79.7217 72.5825C79.7217 72.5825 83.0555 67.2909 83.0914 67.0269C83.1274 66.7509 91.6176 67.2309 91.6176 67.2309V67.2189Z" fill="#143450"/>
<path d="M88.0559 46.2085C90.1185 47.9124 92.0252 50.0722 92.7807 51.9681C93.5362 53.8639 93.6081 57.4036 93.3083 60.0314C93.0205 62.6592 92.1331 68.1788 92.1451 68.4428C92.1571 68.7068 89.6148 69.6187 86.8567 69.4387C84.0866 69.2587 80.9687 67.8428 80.2133 67.3989C79.4578 66.9549 79.0021 66.199 78.9421 65.839C78.8702 65.479 78.1027 60.6674 77.8988 59.9594C77.695 59.2515 77.0594 56.5997 77.7309 54.4519C78.4025 52.304 80.0933 49.1963 80.7649 48.2483C81.4364 47.3004 83.2112 45.8005 84.1586 45.5485C85.1059 45.2966 88.0559 46.2085 88.0559 46.2085Z" fill="#5B9DDF"/>
<path d="M82.2759 41.9608C82.2759 41.9608 83.3671 46.9404 83.3671 47.4924C83.3671 48.0443 80.5731 48.1883 79.242 47.5764C77.9109 46.9644 77.9229 46.1725 77.9229 46.1725C77.9229 46.1725 77.8869 38.1451 80.5131 35.8533L82.2639 41.9488L82.2759 41.9608Z" fill="#553012"/>
<path d="M85.7416 60.6674C85.7416 60.6674 83.8709 65.371 83.727 66.9309C83.5831 68.4908 86.1494 70.5906 87.0367 69.7747C87.9241 68.9587 90.7182 63.7871 90.9101 62.6832C91.102 61.5913 85.7416 60.6554 85.7416 60.6554V60.6674Z" fill="#FF9C78"/>
<path d="M85.8856 67.3869C85.7298 67.1829 85.2741 66.6429 83.7631 66.6549C82.2641 66.6549 75.6686 70.2066 74.1697 70.1227C72.6827 70.0507 70.9678 69.6067 69.8646 69.4987C68.7494 69.3907 67.5742 70.2666 67.5742 70.2666C67.5742 70.2666 66.2551 70.5066 65.7394 70.9266C65.2238 71.3586 65.0679 71.6945 65.0679 71.6945C65.0679 71.6945 65.0679 72.0305 65.4156 72.0665C65.7514 72.1025 66.375 71.6105 66.5429 71.5865C66.7108 71.5625 69.0372 72.3545 70.1044 72.3545C71.1717 72.3545 72.0591 72.7745 73.0064 72.7145C73.9538 72.6545 74.1816 72.5465 74.1816 72.5465C74.1816 72.5465 78.6066 72.4745 81.1729 71.7905C83.7391 71.1066 86.5572 70.2666 87.0608 69.7747C87.2767 68.8268 85.9096 67.3869 85.9096 67.3869H85.8856Z" fill="#FF9C78"/>
<path d="M80.8013 45.2006C81.0531 45.3565 82.5401 47.4804 82.708 48.3563C82.8759 49.2323 82.2883 50.1802 82.3962 50.6241C82.5041 51.0681 84.3628 50.8401 85.2262 50.4682C86.6413 49.8682 87.2888 49.4362 87.7205 49.1603C88.1523 48.8843 88.6919 48.4043 88.548 48.0083C88.4041 47.6124 88.4281 47.6004 88.2002 46.6405C87.8764 45.3086 87.9124 43.4367 87.9124 43.4367C87.9124 43.4367 87.6366 39.513 85.9218 39.981C84.2069 40.4369 80.8013 45.2126 80.8013 45.2126V45.2006Z" fill="#FF9C78"/>
<path d="M85.7414 41.7328C85.7414 41.8168 84.3384 45.3805 83.7748 46.0765C83.2112 46.7724 80.7049 47.3124 79.7216 46.7604C78.7382 46.2205 78.2826 44.4686 78.5224 41.8888C78.6303 40.8209 79.5177 37.3052 80.9207 36.5372C82.3238 35.7573 84.8541 38.3251 85.2258 38.5771C85.5975 38.829 85.7414 41.7448 85.7414 41.7448V41.7328Z" fill="#FF9C78"/>
<path d="M90.5024 51.3081C86.7969 51.932 86.8808 53.6839 85.6577 57.1396C84.5664 60.2234 84.4105 61.4353 84.3146 61.8553C84.0987 62.8632 90.2865 64.3511 90.8741 63.4512C91.1259 63.0672 93.0926 57.5716 93.2245 55.9517C93.5123 52.22 91.8694 51.788 90.5024 51.3201V51.3081Z" fill="#3E8CDA"/>
<path d="M80.9811 37.2812C82.3482 37.7971 82.6 38.793 82.66 40.5449C82.7199 42.2008 82.588 42.9327 83.8471 44.1326C83.8112 42.4048 83.9551 41.8168 84.6866 41.6848C85.4181 41.5648 86.2935 43.0287 86.4374 43.6167C86.5813 44.2046 86.2335 44.5166 86.7611 45.5005C86.929 45.8125 87.8884 46.2325 88.0563 45.9565C88.452 45.5845 91.0662 42.4528 91.0062 40.4129C90.9463 38.3731 90.8144 36.7172 88.6439 35.2653C86.7731 34.0174 84.8305 33.7654 82.8878 34.4134C80.9451 35.0613 80.2376 35.6133 80.3216 37.0652C80.7892 36.6212 80.9811 37.2812 80.9811 37.2812Z" fill="#553012"/>
<path d="M83.1753 41.1568C86.1852 40.9049 83.4871 47.7923 83.3792 48.3803C84.5064 49.4242 90.6942 49.2802 91.1738 47.4804C90.2744 45.7405 91.3297 43.1847 90.9939 40.0169C90.6822 37.1252 83.1753 41.1568 83.1753 41.1568Z" fill="#553012"/>
<path d="M84.2789 43.1367C84.147 42.1648 84.111 41.7088 84.6866 41.6008C85.658 41.4208 85.8858 43.0287 85.4421 43.7607C84.9984 44.4926 84.7466 44.6726 84.3868 44.3966C84.0271 44.1326 84.3389 43.8327 84.2909 43.1367H84.2789Z" fill="#FF9C78"/>
<path d="M14.6425 73.9503C14.6185 74.1423 13.887 75.8102 13.875 76.6501C13.875 77.4901 13.851 77.814 13.9709 78.054C14.0909 78.294 14.5226 79.6739 16.2614 79.9259C18.0002 80.1659 19.2953 78.486 19.2953 78.486L19.3912 76.2302L17.6045 72.1025L14.6425 73.9623V73.9503Z" fill="#F8F7FB"/>
<path d="M20.6024 75.4262C20.6024 75.4262 19.6071 75.9542 19.3553 77.1541C19.0915 78.354 19.2833 78.678 19.5831 79.002C19.8829 79.3139 20.3386 79.7459 22.1853 79.5779C24.0321 79.4099 24.7276 77.8141 24.8835 77.2741C25.0394 76.7341 25.0154 75.1143 24.7036 74.4783C24.3918 73.8424 20.6024 75.4142 20.6024 75.4142V75.4262Z" fill="#F8F7FB"/>
<path d="M18.2757 67.4108C18.2997 67.5908 18.9593 71.1306 18.8034 71.7785C18.6475 72.4145 16.1652 72.8224 15.6495 72.3545C15.1339 71.8865 15.2418 71.5505 15.2418 71.5505L14.894 67.2429L18.2757 67.4108Z" fill="#FF9C78"/>
<path d="M16.273 69.5827C15.3736 69.8947 14.9299 69.8587 14.6421 71.6105C14.3543 73.3624 13.9346 76.0142 14.0306 76.9861C14.1265 77.958 14.906 79.098 16.6568 79.3259C18.4076 79.5539 18.9712 78.09 19.0911 77.3821C19.211 76.6741 19.4868 72.3425 19.283 70.7106C19.0791 69.0787 18.5874 69.2107 18.4795 69.1987C18.3836 69.1747 16.261 69.5827 16.261 69.5827H16.273Z" fill="#DFDFDF"/>
<path d="M13.7188 50.1562C13.7188 50.1562 12.9873 48.2003 12.7715 51.8481C12.5556 55.4838 13.9227 67.4589 14.4263 69.0307C14.93 70.6026 18.6115 69.6787 18.8873 69.4987C19.1751 69.3067 19.9545 54.1399 19.5708 51.8721C19.1871 49.6042 13.7188 50.1682 13.7188 50.1682V50.1562Z" fill="#143450"/>
<path d="M20.3622 67.9508C20.3262 68.1908 19.7626 70.6986 19.7386 71.3106C19.7147 71.9225 20.9138 72.3185 21.9931 72.1025C23.0724 71.8865 23.4681 71.4305 23.4681 70.7946C23.4681 70.1586 23.528 67.7348 23.528 67.7348L20.3622 67.9388V67.9508Z" fill="#FF9C78"/>
<path d="M20.95 69.1147C20.0985 69.1987 19.6548 69.1627 19.451 70.6266C19.2591 72.1025 19.3191 75.1023 19.2951 75.9302C19.2711 76.7581 19.439 78.246 20.3624 78.762C21.2977 79.2779 23.792 78.714 24.3436 77.5381C24.8953 76.3502 24.4516 74.4663 24.2597 73.9143C24.0678 73.3624 23.888 70.6626 23.6481 69.7987C23.4083 68.9227 21.7654 69.5107 21.7654 69.5107L20.938 69.1147H20.95Z" fill="#DFDFDF"/>
<path d="M12.4956 30.7176C12.4716 33.2975 9.66549 35.8053 10.0492 40.3769C10.433 44.9486 12.2797 50.8281 12.9632 52.292C13.6468 53.7559 16.7526 53.6119 17.9039 53.3719C19.0671 53.1319 19.5707 51.86 19.5707 51.86C19.5707 51.86 19.199 41.4568 19.187 40.9529C19.187 40.4489 20.1823 34.3294 19.5228 32.4335C18.8632 30.5377 12.4956 30.7057 12.4956 30.7057V30.7176Z" fill="#143450"/>
<path d="M18.5397 33.1775C18.5756 34.5814 18.3358 39.837 18.5397 40.6049C18.7555 41.3729 19.1992 41.8168 19.1992 41.8168C19.1992 41.8168 19.2352 49.8082 19.547 51.7281C19.8588 53.6479 21.7415 54.5598 23.4203 54.4519C25.0992 54.3439 25.9146 52.688 26.1065 51.8361C26.2984 50.9841 29.2364 46.1965 29.3683 41.7568C29.5002 37.3172 28.3849 32.2895 27.1858 31.0776C25.9866 29.8657 18.5277 33.1895 18.5277 33.1895L18.5397 33.1775Z" fill="#143450"/>
<path d="M25.0032 50.6361C25.9625 53.6479 26.0345 54.8958 25.8546 58.5675C25.6747 62.2393 24.4036 69.1147 24.4276 69.4147C24.4516 69.7147 21.6575 70.4706 20.7581 69.6547L19.8587 68.8387C19.8587 68.8387 19.5829 61.3633 19.6309 57.4636C19.6788 53.5639 19.5229 50.7921 19.5229 50.7921L25.0032 50.6361Z" fill="#143450"/>
<path d="M19.0914 41.8408C19.0914 41.8408 19.5231 43.1007 19.5231 43.4247C19.5231 43.7367 18.8875 43.6287 18.8875 43.6287C18.8875 43.6287 18.9235 44.0127 18.5158 44.1206C18.1081 44.2286 17.8563 43.7487 17.8563 43.7487C17.8563 43.7487 17.4725 43.9167 17.2207 43.8207C16.9689 43.7247 16.5851 43.1247 16.5851 43.1247C16.5851 43.1247 16.765 43.8327 16.2853 43.8807C15.8057 43.9287 14.7983 42.3448 14.6305 42.2368C14.4626 42.1168 13.9829 41.7808 13.9469 41.2529C13.9109 40.7249 13.899 40.4489 13.899 40.4489C13.899 40.4489 6.8118 34.3774 6.3681 32.3015C5.92441 30.2257 9.45 29.8297 9.97764 30.4657C10.5053 31.1016 15.5418 38.5051 16.3093 38.985C17.0648 39.465 18.1321 39.453 18.4199 39.573C18.7077 39.693 19.727 41.1689 19.7749 41.1809C19.8229 41.1809 20.1707 42.1528 20.3505 42.4408C20.5184 42.7407 19.8349 42.6328 19.7629 42.5368C19.703 42.4408 19.1034 41.8288 19.1034 41.8288L19.0914 41.8408Z" fill="#BB4837"/>
<path d="M10.4331 26.626C10.553 28.5338 10.529 30.5737 10.0014 31.4376C9.48573 32.3015 6.72761 33.1415 6.35587 32.3015C5.98412 31.4616 5.94814 27.9459 6.14001 26.9019C6.34387 25.87 7.26724 24.4421 7.45911 24.3941C7.65098 24.3341 10.4211 26.626 10.4211 26.626H10.4331Z" fill="#BB4837"/>
<path d="M10.3975 17.4467C10.4574 17.0267 10.3255 15.0708 11.3568 14.3269C12.3881 13.583 14.5826 13.211 15.6019 13.007C16.6212 12.803 18.7078 12.527 20.8663 12.527C23.0248 12.527 26.3466 13.607 26.6464 13.8229C27.3779 14.3749 27.5697 24.6341 27.5218 27.7299C27.4738 30.8136 27.5697 31.3056 27.5817 31.3896C27.8455 32.6615 24.3319 34.2214 19.883 34.1254C16.4773 34.0534 13.947 32.9375 13.3474 32.3015C12.7479 31.6656 11.6086 24.9461 11.5247 24.7061C11.4407 24.4661 10.4095 17.4587 10.4095 17.4587L10.3975 17.4467Z" fill="#E2343B"/>
<path d="M26.646 13.8229C25.5308 14.3029 25.267 16.9787 25.7467 19.0065C26.0345 20.1825 26.67 25.5341 27.0658 26.038C27.4615 26.542 32.0783 24.5501 32.0783 24.5501C32.0783 24.5501 28.9964 17.4227 28.241 15.8508C27.3176 13.9549 26.646 13.8109 26.646 13.8109V13.8229Z" fill="#F6393B"/>
<path d="M14.5584 10.5352C14.8941 10.9912 15.074 13.043 15.0141 14.0509C14.9541 15.0589 15.4817 16.6307 17.2925 16.9667C19.1033 17.3027 20.998 16.0908 21.4896 15.4908C21.9813 14.8789 21.3218 13.355 21.1299 12.0111C20.938 10.6672 21.0819 7.61942 20.95 7.37944C20.8181 7.15146 14.5584 7.55943 14.5464 10.5352H14.5584Z" fill="#BB4837"/>
<path d="M20.7104 12.371C21.1781 12.299 22.4013 12.647 22.5212 13.271C22.6411 13.8949 22.0895 15.4548 20.7704 16.4747C19.4513 17.4827 16.5013 17.4227 15.6019 16.2947C14.7025 15.1668 14.6306 14.2069 14.8584 13.6669C15.0743 13.127 17.1368 12.827 17.1968 12.827C17.2568 12.827 20.7104 12.371 20.7104 12.371Z" fill="#BB4837"/>
<path d="M21.6698 13.7629C21.5978 12.515 20.1108 12.419 20.1108 12.419C20.1108 12.419 20.6984 8.71132 21.5858 8.77132C22.4732 8.83132 22.9889 11.2671 22.9889 11.2671L21.6578 13.7629H21.6698Z" fill="#553012"/>
<path d="M21.3699 5.56757C21.3699 5.56757 21.9815 9.03531 21.6817 10.3432C21.3939 11.6391 20.4345 13.139 19.4032 13.475C18.372 13.8109 17.3646 13.8349 16.909 13.643C16.4533 13.439 15.2661 12.527 14.7504 11.7711C14.2348 11.0032 13.839 9.67126 13.5512 8.21937C13.2634 6.76748 13.6832 4.15168 14.2468 3.44374C14.8104 2.73579 17.5325 2.00385 17.5325 2.00385C17.5325 2.00385 19.1514 2.36382 19.715 2.6398C20.2786 2.91578 21.3579 5.57957 21.3579 5.57957L21.3699 5.56757Z" fill="#BB4837"/>
<path d="M31.8027 24.5501C31.8027 24.5501 32.762 27.4779 32.7381 28.6178C32.7141 29.7577 32.4862 30.7656 31.7667 31.3656C31.0352 31.9535 28.5649 29.9617 28.5649 29.9617L28.373 27.0339C28.373 27.0339 28.9966 25.474 29.7641 25.0781C30.5316 24.6821 31.8027 24.5501 31.8027 24.5501Z" fill="#BB4837"/>
<path d="M28.7928 17.4947C28.7928 17.4947 29.0687 17.0507 29.2845 16.8947C29.8002 16.4987 29.8961 15.5988 29.8481 15.1308C29.8002 14.6629 29.5243 14.6509 29.2845 14.7229C29.0447 14.8069 28.4811 16.0788 28.3611 16.2948C28.2412 16.5107 26.9221 17.8426 26.5744 18.4546C26.2266 19.0665 25.9748 19.5345 26.0347 20.2305C26.0467 20.4104 26.3825 21.3104 26.5864 21.6223C26.7902 21.9343 26.9461 23.6022 26.9461 23.6022C26.9461 23.6022 27.4618 28.3418 27.9294 29.8897C28.3851 31.4376 29.9201 32.1575 31.0353 31.8216C31.8627 31.5696 32.4743 30.6937 32.5463 30.0817C32.4863 29.2058 32.2105 27.2739 31.2632 25.93C30.3158 24.5861 28.7449 21.9943 28.7449 21.9943L31.0353 20.6504C31.0353 20.6504 33.0619 18.2266 33.2538 17.9626C33.4457 17.6986 33.2178 17.4347 33.026 17.3627C32.8341 17.2907 31.4071 18.6826 31.4071 18.6826L33.2178 16.5467C33.3857 16.3427 33.3737 16.0548 33.1938 15.8628L32.954 15.6228C32.954 15.6228 33.2178 15.2388 33.1579 15.0348C33.1339 14.9629 33.0379 14.8429 32.894 14.8069C32.5103 14.6869 32.3424 14.8309 32.0426 15.0948L29.8841 16.9907L28.8048 17.5067L28.7928 17.4947Z" fill="#BB4837"/>
<path d="M11.6924 24.9821C11.5724 25.2701 10.9729 28.0179 10.757 28.0179C8.74237 28.0659 6.03223 27.0339 5.86434 26.77C5.69646 26.506 8.63445 18.2146 9.1381 16.9067C9.62977 15.6108 10.6371 14.6749 11.3686 14.3149C11.6924 17.0627 11.7044 24.9701 11.7044 24.9701L11.6924 24.9821Z" fill="#F6393B"/>
<path d="M17.089 3.88771C16.7292 4.22368 16.1176 4.87163 14.0311 5.48359C13.4555 5.65157 13.4675 6.5995 13.4555 6.93548C13.4555 7.51143 14.2109 10.6552 14.2109 10.6552L13.3475 9.58727C13.3475 9.58727 12.8679 8.78333 12.5681 7.9674C12.2683 7.15146 11.6687 5.49559 12.2803 3.39575C12.8918 1.29591 14.8945 -0.0599904 16.5853 0.287983C18.8997 -0.443961 19.7631 0.287983 20.8664 1.65588C21.9696 3.03577 22.5452 6.77949 21.6818 7.82341C21.394 3.01177 18.4081 4.35567 17.101 3.88771H17.089Z" fill="#222222"/>
<path d="M21.5134 6.5515C21.7173 8.31537 21.9451 11.7831 21.3096 14.1109C23.564 13.9189 23.9598 12.4311 23.7319 11.6511C23.5041 10.8712 22.6886 9.77926 22.3888 7.25945C22.089 4.73964 21.7653 3.67172 21.7653 3.67172L21.5134 6.5395V6.5515Z" fill="#222222"/>
<path d="M12.124 6.3475C12.6996 7.6434 12.7476 12.863 11.8242 13.7509C12.6876 15.1668 15.6016 15.0348 15.6016 15.0348C15.6016 15.0348 16.1413 13.559 15.062 12.1311C13.9947 10.7032 13.623 7.93138 13.623 7.93138L12.124 6.3475Z" fill="#222222"/>
<path d="M13.839 8.37535C13.839 8.31535 13.5872 7.61941 13.2034 7.89538C12.8197 8.15936 13.1075 9.0593 13.2274 9.31128C13.3353 9.56326 13.9229 10.4272 14.1508 10.2712C14.3786 10.1152 13.8989 9.17929 13.8989 9.0473C13.8989 8.91531 13.839 8.37535 13.839 8.37535Z" fill="#BB4837"/>
<path d="M21.9573 6.39552C21.9573 6.39552 21.9573 6.13154 21.8854 6.04755C21.7295 5.86756 21.4417 6.04755 21.4297 6.27553C21.4297 6.51551 21.5496 8.0154 21.5496 8.12339C21.5496 8.23138 21.7535 8.05139 21.8014 7.71542C21.8494 7.42744 21.9333 6.6235 21.9453 6.38352L21.9573 6.39552Z" fill="#BB4837"/>
<path d="M73.4018 54.7518C70.3559 44.6846 55.1383 37.0052 36.8628 36.9692C18.5873 36.9332 3.45364 44.5646 0.515648 54.6198H0V57.4876C0.059959 69.2827 16.6686 78.882 37.0907 78.918C57.5127 78.954 74.0134 69.4147 73.9535 57.6196V54.7518H73.3898H73.4018Z" fill="#B0603D"/>
<path d="M73.9724 54.8885C74.0362 43.0928 57.5304 33.4408 37.1057 33.3302C16.681 33.2197 0.0718503 42.6923 0.00806734 54.4881C-0.0557156 66.2838 16.4501 75.9358 36.8748 76.0463C57.2995 76.1569 73.9087 66.6842 73.9724 54.8885Z" fill="#C57347"/>
<path d="M56.6975 69.4867C52.0087 69.4867 48.2073 67.2789 48.1953 64.5671C48.1833 61.8553 51.9608 59.6715 56.6496 59.6835C61.3384 59.6955 65.1398 61.8913 65.1518 64.6031C65.1637 67.3029 61.3863 69.4987 56.6975 69.4867Z" fill="#88887E"/>
<path d="M65.1517 63.5111H65.1277C64.78 60.9793 48.5671 60.9433 48.2193 63.4631H48.1953V63.8711C48.2073 66.5709 52.0207 68.7787 56.6975 68.7907C61.3743 68.7907 65.1517 66.6189 65.1517 63.9311V63.5231V63.5111Z" fill="#BAC2AF"/>
<path d="M56.6975 68.3828C52.0087 68.3828 48.2073 66.175 48.1953 63.4632C48.1833 60.7514 51.9608 58.5675 56.6496 58.5795C61.3384 58.5795 65.1398 60.7874 65.1518 63.4992C65.1637 66.199 61.3863 68.3948 56.6975 68.3828Z" fill="#CBD1C3"/>
<path d="M56.6857 67.2069C53.1242 67.2069 50.2342 65.527 50.2222 63.4751C50.2222 61.4233 53.0882 59.7554 56.6498 59.7674C60.2113 59.7794 63.1014 61.4473 63.1134 63.4991C63.1253 65.551 60.2473 67.2189 56.6857 67.2069Z" fill="#BAC2AF"/>
<path d="M56.6257 60.3074L56.7217 60.4034L61.3385 64.795V65.035L50.9536 65.059C50.7258 65.059 50.5579 64.867 50.5819 64.6391C50.8337 62.4312 52.6445 60.5114 55.7743 59.4435L56.0621 59.7314L56.6377 60.3074H56.6257Z" fill="#F8D075"/>
<path d="M61.3263 64.795L51.8647 64.807L61.3263 64.795Z" fill="#F8D075"/>
<path d="M56.6852 60.1274L56.7212 60.1634L61.338 64.7951H51.8765C51.9244 62.8392 53.5313 60.5594 56.6372 59.8994L56.6972 60.1394L56.6852 60.1274Z" fill="#F8D075"/>
<path d="M56.7097 60.1514C53.9636 61.0994 52.1049 62.8272 52.0449 64.8071H61.3266L56.7097 60.1514Z" fill="#E8523D"/>
<path d="M51.8651 64.6391H50.7139C50.7738 62.3833 52.8964 60.4034 56.0502 59.3235L56.6258 59.8994C53.8197 60.8714 51.925 62.6232 51.8651 64.6391Z" fill="#FDE598"/>
<path d="M54.5395 62.6952C54.9952 62.9592 55.7267 62.9592 56.1824 62.6952C56.6381 62.4312 56.6381 62.0113 56.1824 61.7473C55.7267 61.4833 54.9952 61.4833 54.5395 61.7473C54.0838 62.0113 54.0838 62.4312 54.5395 62.6952Z" fill="#FFBD95"/>
<path d="M56.6739 63.8831C56.6139 63.7751 56.6139 63.6551 56.6739 63.5591C56.8777 63.2112 57.2135 63.0192 57.8131 62.8992C57.981 62.8632 58.1848 62.8632 58.3767 62.8992C58.6166 62.9472 58.8324 63.0312 58.7964 63.1872C58.7125 63.3312 58.3767 63.3072 58.2208 63.3912C58.2088 63.3912 58.1968 63.4032 58.1848 63.4152C58.2688 63.4511 58.3407 63.4871 58.4247 63.5351C58.6765 63.6791 58.8684 63.6911 59.0363 63.7991C59.1562 63.8711 59.0123 64.0631 58.8444 64.1591C58.6885 64.2551 58.3647 64.3391 58.2328 64.2671C58.0409 64.1711 58.017 64.0511 57.7651 63.9071C57.6932 63.8591 57.6212 63.8231 57.5613 63.7751C57.5493 63.7751 57.5373 63.7871 57.5253 63.7991C57.3694 63.8951 57.4174 64.0871 57.1655 64.1351C56.9017 64.1591 56.7458 64.0271 56.6619 63.8951L56.6739 63.8831Z" fill="#9DA1A3"/>
<path d="M56.6739 63.8111C56.6139 63.7031 56.6139 63.5831 56.6739 63.4871C56.8777 63.1392 57.2135 62.9472 57.8131 62.8272C57.981 62.7912 58.1848 62.7912 58.3767 62.8272C58.6166 62.8752 58.8324 62.9592 58.7964 63.1152C58.7125 63.2592 58.3767 63.2352 58.2208 63.3192C58.2088 63.3192 58.1968 63.3312 58.1848 63.3432C58.2688 63.3792 58.3407 63.4152 58.4247 63.4631C58.6765 63.6071 58.8684 63.6191 59.0363 63.7271C59.1562 63.7991 59.0123 63.9911 58.8444 64.0871C58.6885 64.1831 58.3647 64.2671 58.2328 64.1951C58.0409 64.0991 58.017 63.9791 57.7651 63.8351C57.6932 63.7871 57.6212 63.7511 57.5613 63.7031C57.5493 63.7031 57.5373 63.7151 57.5253 63.7271C57.3694 63.8231 57.4174 64.0151 57.1655 64.0631C56.9017 64.0871 56.7458 63.9551 56.6619 63.8231L56.6739 63.8111Z" fill="#D1D3D4"/>
<path d="M53.8315 63.9431C54.0594 64.0751 54.4191 64.0751 54.647 63.9431C54.8748 63.8111 54.8748 63.6071 54.647 63.4752C54.4191 63.3432 54.0594 63.3432 53.8315 63.4752C53.6037 63.6071 53.6037 63.8111 53.8315 63.9431Z" fill="#36404C"/>
<path d="M27.1975 47.2284C22.5087 47.2284 18.7073 45.0205 18.6953 42.3088C18.6833 39.609 22.4608 37.4131 27.1496 37.4251C31.8384 37.4251 35.6398 39.633 35.6518 42.3448C35.6637 45.0445 31.8863 47.2404 27.1975 47.2284Z" fill="#88887E"/>
<path d="M35.6517 41.2529H35.6277C35.28 38.7211 19.0671 38.6851 18.7193 41.2049H18.6953V41.6128C18.7073 44.3126 22.5207 46.5205 27.1975 46.5325C31.8743 46.5325 35.6517 44.3606 35.6517 41.6728V41.2649V41.2529Z" fill="#BAC2AF"/>
<path d="M27.1975 46.1245C22.5087 46.1245 18.7073 43.9167 18.6953 41.2049C18.6833 38.5051 22.4608 36.3092 27.1496 36.3212C31.8384 36.3332 35.6398 38.5291 35.6518 41.2409C35.6637 43.9527 31.8863 46.1365 27.1975 46.1245Z" fill="#CBD1C3"/>
<path d="M27.1858 44.9366C23.6242 44.9366 20.7342 43.2567 20.7222 41.2049C20.7222 39.153 23.5882 37.4851 27.1498 37.4971C30.7113 37.4971 33.6014 39.177 33.6134 41.2289C33.6134 43.2807 30.7473 44.9486 27.1858 44.9366Z" fill="#BAC2AF"/>
<path d="M22.5085 43.1487L22.6044 43.0527L27.2693 38.3971L31.8861 43.0287L31.982 43.1247L32.5576 43.2807L32.6656 43.5447C32.7615 43.7847 32.6296 44.0606 32.3778 44.1326C30.8308 44.5886 29.092 44.8406 27.2453 44.8406C25.4105 44.8406 23.6837 44.6006 22.1607 44.1566C21.8849 44.0726 21.741 43.7727 21.849 43.5087L21.9449 43.2927L22.5205 43.1367L22.5085 43.1487Z" fill="#F8D075"/>
<path d="M27.2693 38.1691L22.6045 42.8247C23.9716 43.2687 25.5545 43.5207 27.2453 43.5207C28.9242 43.5207 30.5191 43.2567 31.8861 42.8127L27.2693 38.1811V38.1691Z" fill="#E8523D"/>
<path d="M22.5087 42.7408C23.8998 43.1967 25.5187 43.4487 27.2335 43.4487C28.9483 43.4487 30.5672 43.1847 31.9702 42.7288L32.5459 43.3047C30.9749 43.8207 29.1642 44.1087 27.2335 44.1207C25.3028 44.1327 23.492 43.8327 21.9331 43.3287L22.5087 42.7528V42.7408Z" fill="#FDE598"/>
<path d="M27.9525 40.6889C28.1324 40.7489 28.2643 40.8209 28.3483 40.9169C28.6361 41.2409 28.6361 41.5168 28.3483 41.8408C28.2643 41.9368 28.1324 42.0208 27.9525 42.0688C27.7247 42.1408 27.4609 42.1528 27.293 42.0448C27.1851 41.9128 27.4489 41.7928 27.4489 41.6608C27.4489 41.6608 27.4489 41.6368 27.4489 41.6248C27.3529 41.6248 27.245 41.6368 27.1371 41.6368C26.7773 41.6368 26.6334 41.7088 26.3696 41.6968C26.1897 41.6968 26.0698 41.5048 26.0698 41.3728C26.0698 41.2409 26.2017 41.0489 26.3696 41.0489C26.6334 41.0489 26.7773 41.1089 27.1371 41.1089C27.245 41.1089 27.3529 41.1089 27.4489 41.1209C27.4489 41.1209 27.4489 41.0969 27.4489 41.0849C27.4489 40.9529 27.1851 40.8449 27.293 40.7009C27.4609 40.5809 27.7247 40.6049 27.9525 40.6649V40.6889Z" fill="#9DA1A3"/>
<path d="M27.9525 40.6049C28.1324 40.6649 28.2643 40.7369 28.3483 40.8329C28.6361 41.1568 28.6361 41.4328 28.3483 41.7568C28.2643 41.8528 28.1324 41.9368 27.9525 41.9848C27.7247 42.0568 27.4609 42.0688 27.293 41.9608C27.1851 41.8288 27.4489 41.7088 27.4489 41.5768C27.4489 41.5768 27.4489 41.5528 27.4489 41.5408C27.3529 41.5408 27.245 41.5528 27.1371 41.5528C26.7773 41.5528 26.6334 41.6248 26.3696 41.6128C26.1897 41.6128 26.0698 41.4208 26.0698 41.2888C26.0698 41.1568 26.2017 40.9649 26.3696 40.9649C26.6334 40.9649 26.7773 41.0248 27.1371 41.0248C27.245 41.0248 27.3529 41.0249 27.4489 41.0368C27.4489 41.0368 27.4489 41.0128 27.4489 41.0008C27.4489 40.8689 27.1851 40.7609 27.293 40.6169C27.4609 40.4969 27.7247 40.5209 27.9525 40.5809V40.6049Z" fill="#D1D3D4"/>
<path d="M24.8227 42.6208C25.0506 42.7527 25.4103 42.7527 25.6382 42.6208C25.866 42.4888 25.866 42.2848 25.6382 42.1528C25.4103 42.0208 25.0506 42.0208 24.8227 42.1528C24.5949 42.2848 24.5949 42.4888 24.8227 42.6208Z" fill="#36404C"/>
<path d="M25.0746 71.2746C17.5798 71.2626 11.4879 67.7468 11.4639 63.4152C11.44 59.0835 17.4958 55.5918 24.9787 55.6038C32.4616 55.6158 38.5654 59.1315 38.5894 63.4632C38.6134 67.7948 32.5575 71.2866 25.0626 71.2746H25.0746Z" fill="#88887E"/>
<path d="M38.5896 62.4312H38.5416C37.978 58.3875 12.0517 58.3275 11.5001 62.3472H11.4521V62.6352C11.4761 66.9669 17.568 70.4826 25.0628 70.4946C32.5337 70.5066 38.5776 67.0269 38.5776 62.7192V63.0672V62.4192L38.5896 62.4312Z" fill="#BAC2AF"/>
<path d="M25.0746 70.2186C17.5798 70.2066 11.4879 66.6909 11.4639 62.3592C11.44 58.0276 17.4958 54.5358 24.9787 54.5478C32.4616 54.5598 38.5654 58.0756 38.5894 62.4072C38.6134 66.7389 32.5575 70.2306 25.0626 70.2186H25.0746Z" fill="#CBD1C3"/>
<path d="M25.0629 69.2227C18.5274 69.2227 13.215 66.139 13.191 62.3592C13.167 58.5795 18.4554 55.5318 24.9909 55.5438C31.5265 55.5438 36.8388 58.6275 36.8628 62.4072C36.8868 66.187 31.5984 69.2347 25.0629 69.2227Z" fill="#BAC2AF"/>
<path d="M30.459 56.3357C30.6029 56.3837 30.6389 56.5637 30.531 56.6717L30.447 56.7557L29.8714 57.3316L29.7755 57.4276L25.1107 62.0833L20.4938 57.4516L20.3979 57.3556L19.8223 56.7797L19.7983 56.7557C19.7144 56.6477 19.7144 56.4797 19.7983 56.3837L19.8103 56.3717C21.4532 55.8438 23.12 55.6398 25.1227 55.6398C27.0653 55.6398 28.8281 55.8678 30.423 56.3597L30.459 56.3357Z" fill="#F8D075"/>
<path d="M29.8837 57.0796L29.7877 57.1756L25.1229 61.8313L20.5061 57.1996L20.4102 57.1036C21.8132 56.6477 23.4321 56.3837 25.1469 56.3837C26.8617 56.3837 28.4806 56.6357 29.8717 57.0916L29.8837 57.0796Z" fill="#F8D075"/>
<path d="M25.1467 56.4917C23.4558 56.4917 21.8729 56.7557 20.5059 57.1996L25.1227 61.8313L29.7875 57.1756C28.4204 56.7317 26.8375 56.4797 25.1467 56.4797V56.4917Z" fill="#E8523D"/>
<path d="M25.1586 55.5438C27.0892 55.5438 28.9 55.8317 30.4589 56.3357L29.8833 56.9117C28.4923 56.4557 26.8734 56.2037 25.1586 56.2037C23.4437 56.2037 21.8248 56.4677 20.4218 56.9237L19.8462 56.3477C21.4171 55.8317 23.2279 55.5438 25.1586 55.5318V55.5438Z" fill="#FDE598"/>
<path d="M26.1899 58.3995C26.6456 58.6635 27.3771 58.6635 27.8328 58.3995C28.2885 58.1356 28.2885 57.7156 27.8328 57.4516C27.3771 57.1876 26.6456 57.1876 26.1899 57.4516C25.7342 57.7156 25.7342 58.1356 26.1899 58.3995Z" fill="#FFBD95"/>
<path d="M24.2712 60.2114C24.0914 60.1514 23.9595 60.0794 23.8755 59.9834C23.5877 59.6595 23.5877 59.3835 23.8755 59.0595C23.9595 58.9635 24.0914 58.8795 24.2712 58.8315C24.4991 58.7595 24.7629 58.7475 24.9308 58.8555C25.0387 58.9875 24.7749 59.1075 24.7749 59.2395C24.7749 59.2395 24.7749 59.2635 24.7749 59.2755C24.8708 59.2755 24.9788 59.2635 25.0867 59.2635C25.4464 59.2635 25.5903 59.1915 25.8542 59.2035C26.034 59.2035 26.154 59.3955 26.154 59.5275C26.154 59.6594 26.0221 59.8514 25.8542 59.8514C25.5903 59.8514 25.4464 59.7914 25.0867 59.7914C24.9788 59.7914 24.8708 59.7914 24.7749 59.7794C24.7749 59.7794 24.7749 59.8034 24.7749 59.8154C24.7749 59.9474 25.0387 60.0554 24.9308 60.1994C24.7629 60.3194 24.4991 60.2954 24.2712 60.2354V60.2114Z" fill="#9DA1A3"/>
<path d="M24.2712 60.1394C24.0914 60.0794 23.9595 60.0074 23.8755 59.9114C23.5877 59.5875 23.5877 59.3115 23.8755 58.9875C23.9595 58.8915 24.0914 58.8075 24.2712 58.7595C24.4991 58.6875 24.7629 58.6755 24.9308 58.7835C25.0387 58.9155 24.7749 59.0355 24.7749 59.1675C24.7749 59.1675 24.7749 59.1915 24.7749 59.2035C24.8708 59.2035 24.9788 59.1915 25.0867 59.1915C25.4464 59.1915 25.5903 59.1195 25.8542 59.1315C26.034 59.1315 26.154 59.3235 26.154 59.4555C26.154 59.5875 26.0221 59.7794 25.8542 59.7794C25.5903 59.7794 25.4464 59.7194 25.0867 59.7194C24.9788 59.7194 24.8708 59.7194 24.7749 59.7074C24.7749 59.7074 24.7749 59.7314 24.7749 59.7434C24.7749 59.8754 25.0387 59.9834 24.9308 60.1274C24.7629 60.2474 24.4991 60.2234 24.2712 60.1634V60.1394Z" fill="#D1D3D4"/>
<path d="M22.8442 57.6556C23.0721 57.7876 23.4318 57.7876 23.6597 57.6556C23.8875 57.5236 23.8875 57.3196 23.6597 57.1876C23.4318 57.0557 23.0721 57.0557 22.8442 57.1876C22.6164 57.3196 22.6164 57.5236 22.8442 57.6556Z" fill="#36404C"/>
<path d="M20.1463 67.0269L19.5707 67.6028L19.4628 67.7108C19.3429 67.8308 19.175 67.8668 19.0191 67.8068C16.237 66.7989 14.2704 65.107 13.8027 63.1392C13.6947 62.6592 13.8866 62.1673 14.2823 61.8793H15.4336L15.6254 62.0473H24.9071V62.2752L20.2423 66.9309L20.1463 67.0269Z" fill="#F8D075"/>
<path d="M15.625 62.0593H18.8388L24.9067 62.0473L20.2418 66.7029C17.4957 65.767 15.661 64.0391 15.625 62.0713V62.0593Z" fill="#FDE598"/>
<path d="M20.1944 66.7389L20.146 66.7873L20.1944 66.7389Z" fill="#F8D075"/>
<path d="M15.625 62.0593L24.9067 62.0473L18.8388 62.0593H15.625Z" fill="#F8D075"/>
<path d="M15.4453 62.0594H15.6372C15.6732 64.0392 17.5079 65.7551 20.254 66.691L20.2061 66.739L20.1581 66.787C17.364 65.8271 15.4813 64.0752 15.4573 62.0594H15.4453Z" fill="#F8D075"/>
<path d="M15.625 62.0593H24.9067L20.2418 66.6909C17.4957 65.755 15.661 64.0271 15.625 62.0593Z" fill="#E8523D"/>
<path d="M15.6253 61.8913H15.4334C15.4694 63.9071 17.3401 65.659 20.1342 66.6189L19.5586 67.1949C16.4168 66.127 14.3062 64.1591 14.2822 61.8913H15.6133H15.6253Z" fill="#FDE598"/>
<path d="M18.4555 64.7351C18.9112 64.999 19.6427 64.999 20.0984 64.7351C20.5541 64.4711 20.5541 64.0511 20.0984 63.7871C19.6427 63.5231 18.9112 63.5231 18.4555 63.7871C17.9998 64.0511 17.9998 64.4711 18.4555 64.7351Z" fill="#FFBD95"/>
<path d="M21.2495 63.1632C21.4773 63.2952 21.8371 63.2952 22.0649 63.1632C22.2928 63.0312 22.2928 62.8272 22.0649 62.6952C21.8371 62.5632 21.4773 62.5632 21.2495 62.6952C21.0217 62.8272 21.0217 63.0312 21.2495 63.1632Z" fill="#36404C"/>
<path d="M25.3389 62.0475V62.2875L29.9557 66.9191L30.0516 67.0151L30.6273 67.5911C30.6992 67.6631 30.7951 67.723 30.8911 67.759C31.023 67.795 31.1789 67.795 31.3108 67.747C34.2967 66.6191 36.0475 64.6873 36.2154 62.4914C36.2154 62.3595 36.1435 62.1555 36.0955 62.0595C36.0595 62.0115 35.9516 61.8675 35.9516 61.8675L34.6205 62.0475H25.8425L25.3389 62.0595V62.0475Z" fill="#F8D075"/>
<path d="M34.8004 62.0233L25.3389 62.0473L34.8004 62.0233Z" fill="#F8D075"/>
<path d="M34.8002 62.0233C34.7402 64.0391 32.8455 65.803 30.0394 66.7629L29.9435 66.6669L25.3267 62.0353H34.7882L34.8002 62.0233Z" fill="#F8D075"/>
<path d="M34.6083 62.0233H25.3267L29.9435 66.6789C32.6896 65.731 34.5484 64.0031 34.6083 62.0233Z" fill="#E8523D"/>
<path d="M30.0393 66.5949C30.0393 66.5949 30.8908 66.9069 30.9267 67.0509C33.9007 65.947 35.8913 64.0271 35.9393 61.8433H34.7881C34.7401 63.8591 32.8334 65.623 30.0273 66.5949H30.0393Z" fill="#FDE598"/>
<path d="M30.7348 64.2551C31.1905 64.5191 31.922 64.5191 32.3777 64.2551C32.8334 63.9911 32.8334 63.5712 32.3777 63.3072C31.922 63.0432 31.1905 63.0432 30.7348 63.3072C30.2791 63.5712 30.2791 63.9911 30.7348 64.2551Z" fill="#FFBD95"/>
<path d="M27.8208 63.4991C28.0486 63.6311 28.4084 63.6311 28.6362 63.4991C28.8641 63.3672 28.8641 63.1632 28.6362 63.0312C28.4084 62.8992 28.0486 62.8992 27.8208 63.0312C27.5929 63.1632 27.5929 63.3672 27.8208 63.4991Z" fill="#36404C"/>
<path d="M30.0996 57.3916L30.6752 56.8157L30.975 56.5157C33.925 57.5236 35.6278 59.2995 36.0715 61.3513C36.1555 61.7473 36.2394 62.1073 35.8197 62.1073L25.3389 62.1313V61.8913L30.0037 57.4756L30.0996 57.3796V57.3916Z" fill="#F8D075"/>
<path d="M30.0037 57.2476L30.0996 57.1516V56.9836C30.0996 56.9836 34.8004 57.9916 34.8004 61.8793H25.3389L30.0037 57.2476Z" fill="#F8D075"/>
<path d="M25.3389 61.9033L34.8004 61.8793L25.3389 61.9033Z" fill="#F8D075"/>
<path d="M30.0037 57.2476L25.3389 61.9033H34.6205C34.5845 59.9114 32.7498 58.1955 30.0037 57.2476Z" fill="#E8523D"/>
<path d="M30.0996 56.9836L30.6752 56.4077C33.8171 57.4756 35.9156 59.4435 35.9516 61.7113H34.8004C34.7644 59.6954 32.8937 57.9436 30.0996 56.9836Z" fill="#FDE598"/>
<path d="M29.4638 59.0955C29.6556 59.0595 29.8595 59.0595 30.0274 59.0955C30.627 59.2035 30.9627 59.4075 31.1666 59.7554C31.2266 59.8514 31.2266 59.9714 31.1666 60.0794C31.0947 60.2234 30.9268 60.3434 30.663 60.3194C30.4111 60.2714 30.4711 60.0794 30.3032 59.9834C30.2912 59.9834 30.2792 59.9714 30.2672 59.9594C30.2073 60.0074 30.1353 60.0554 30.0634 60.0914C29.8115 60.2354 29.7876 60.3434 29.5957 60.4514C29.4638 60.5234 29.14 60.4394 28.9841 60.3434C28.8282 60.2474 28.6843 60.0674 28.8042 59.9954C28.9841 59.8874 29.176 59.8754 29.4158 59.7194C29.4878 59.6714 29.5717 59.6354 29.6556 59.5994C29.6437 59.5994 29.6317 59.5874 29.6197 59.5754C29.4638 59.4795 29.128 59.5154 29.0441 59.3715C29.0081 59.2155 29.2239 59.1315 29.4758 59.0835L29.4638 59.0955Z" fill="#9DA1A3"/>
<path d="M29.4638 59.0235C29.6556 58.9875 29.8595 58.9875 30.0274 59.0235C30.627 59.1315 30.9627 59.3355 31.1666 59.6834C31.2266 59.7794 31.2266 59.8994 31.1666 60.0074C31.0947 60.1514 30.9268 60.2714 30.663 60.2474C30.4111 60.1994 30.4711 60.0074 30.3032 59.9114C30.2912 59.9114 30.2792 59.8994 30.2672 59.8874C30.2073 59.9354 30.1353 59.9834 30.0634 60.0194C29.8115 60.1634 29.7876 60.2714 29.5957 60.3794C29.4638 60.4514 29.14 60.3674 28.9841 60.2714C28.8282 60.1754 28.6843 59.9954 28.8042 59.9234C28.9841 59.8154 29.176 59.8034 29.4158 59.6594C29.4878 59.6114 29.5717 59.5754 29.6556 59.5394C29.6437 59.5394 29.6317 59.5274 29.6197 59.5155C29.4638 59.4195 29.128 59.4555 29.0441 59.3115C29.0081 59.1555 29.2239 59.0715 29.4758 59.0235H29.4638Z" fill="#D1D3D4"/>
<path d="M31.6587 61.1473C31.8865 61.2793 32.2463 61.2793 32.4741 61.1473C32.702 61.0153 32.702 60.8114 32.4741 60.6794C32.2463 60.5474 31.8865 60.5474 31.6587 60.6794C31.4308 60.8114 31.4308 61.0153 31.6587 61.1473Z" fill="#36404C"/>
<path d="M16.7764 55.0758C15.4453 55.8197 13.3347 55.7957 12.0396 55.0278C10.7445 54.2599 10.7805 53.0239 12.1116 52.28C13.4426 51.5361 15.5532 51.5601 16.8483 52.328C18.1434 53.0959 18.1075 54.3318 16.7764 55.0758Z" fill="#88887E"/>
<path d="M46.2163 65.359C44.8852 66.103 42.7747 66.079 41.4795 65.311C40.1844 64.5431 40.2204 63.3072 41.5515 62.5632C42.8826 61.8193 44.9931 61.8433 46.2883 62.6112C47.5834 63.3792 47.5474 64.6151 46.2163 65.359Z" fill="#88887E"/>
<path d="M43.2544 47.7084C41.9233 48.4523 39.8127 48.4283 38.5176 47.6604C37.2225 46.8924 37.2585 45.6565 38.5896 44.9126C39.9207 44.1686 42.0312 44.1926 43.3263 44.9606C44.6215 45.7285 44.5855 46.9644 43.2544 47.7084Z" fill="#88887E"/>
<path d="M75.0927 36.8972C74.637 36.3932 71.699 36.4892 71.699 36.4892C71.699 36.4892 71.0035 36.7772 69.5525 37.4731C68.3773 38.0251 65.0315 39.9329 61.458 41.0369C60.5346 41.3248 58.472 41.3248 57.7525 41.3128C57.045 41.3008 56.4454 40.9289 56.4454 40.9289C56.4454 40.9289 55.8938 40.4609 55.3661 40.5209C54.8385 40.5809 54.7426 40.8809 54.9944 41.2888C55.2462 41.7088 55.7019 41.8048 55.7019 41.8048C55.7019 41.8048 52.7519 42.8007 52.2963 43.2207C51.8406 43.6407 52.1044 44.0606 52.7519 43.9166L53.4115 43.7727C53.4115 43.7727 52.1643 44.1206 52.0564 44.5286C51.9485 44.9366 52.3322 45.0566 52.5121 45.0686C52.692 45.0806 53.1597 44.9006 53.1597 44.9006C53.1597 44.9006 52.9558 45.0086 53.1597 45.4165C53.3635 45.8245 54.0231 45.5725 54.191 45.5245C54.3588 45.4885 57.5607 44.1566 57.6446 44.1206C57.7285 44.0846 58.0883 43.9526 58.0883 43.9526C58.0883 43.9526 55.618 45.4885 55.4141 45.7885C55.2222 46.0765 55.594 46.3525 55.9537 46.3285C56.3135 46.3165 58.58 45.0686 58.7478 45.0326C58.9157 44.9966 60.5826 44.8646 61.2421 44.7566C61.9017 44.6606 62.5013 43.5087 62.5972 43.4727C62.6931 43.4367 70.7756 41.9248 72.8382 41.1929C74.8888 40.4609 75.3085 40.0289 75.6803 39.525C76.052 39.021 76.1 38.0731 75.0927 36.8732V36.8972Z" fill="#FF9C78"/>
<path d="M76.6519 58.6875C76.6519 58.6875 76.4 57.4876 76.0403 57.1516C75.6805 56.8157 66.4588 54.9438 65.7034 54.4638C64.9479 53.9839 64.708 53.8759 63.7727 53.8519C62.8373 53.8279 61.5902 54.0199 61.5422 54.0319C61.4822 54.0439 60.5109 53.8399 60.1871 53.9479C59.8633 54.0559 59.8514 54.5358 60.4509 54.8478C61.0505 55.1598 61.878 54.9438 61.878 54.9438L62.6934 55.0158C62.6934 55.0158 61.794 56.0477 61.3983 56.0957C60.9906 56.1437 58.7601 56.2997 58.0406 56.6357C57.3211 56.9717 57.5369 57.4276 57.7528 57.5356C57.9567 57.6316 58.3524 57.5596 58.3524 57.5596C58.3524 57.5596 58.1125 57.8116 59.0599 57.9196C60.0073 58.0276 62.6694 58.1956 63.5568 58.1116C64.4562 58.0276 65.2357 57.3196 65.7513 57.2836C66.267 57.2596 71.8911 60.7874 73.1143 61.0633C74.3255 61.3393 76.1962 61.8793 76.9996 61.8433C77.0956 60.2714 76.6639 58.6755 76.6639 58.6755L76.6519 58.6875Z" fill="#FF9C78"/>
<path d="M45.7251 64.8191C44.6698 65.419 42.967 65.395 41.9477 64.7831C40.9164 64.1711 40.9404 63.1872 41.9956 62.5872C43.0509 61.9873 44.7538 62.0113 45.7731 62.6232C46.7924 63.2352 46.7804 64.2191 45.7251 64.8191Z" fill="#C9CDBF"/>
<path d="M46.5283 63.8112L47.4997 55.7478C47.5716 55.1719 47.2359 54.5839 46.4804 54.14C45.0893 53.312 42.7989 53.288 41.3599 54.092C40.5684 54.5359 40.2087 55.1359 40.2686 55.7359L41.192 63.7992C41.144 63.3673 41.4078 62.9113 41.9954 62.5873C43.0507 61.9874 44.7536 62.0114 45.7729 62.6233C46.3245 62.9593 46.5763 63.3913 46.5283 63.8112Z" fill="#C9CDBF"/>
<path d="M46.9839 55.8797L46.6961 56.9716C46.828 56.4797 46.5642 55.9637 45.9286 55.5677C44.8373 54.9078 43.0386 54.8958 41.9114 55.5317C41.2278 55.9157 40.952 56.4437 41.0839 56.9596L40.8081 55.8677C40.6642 55.3158 40.976 54.7278 41.7195 54.3078C42.9546 53.6119 44.9453 53.6359 46.1445 54.3558C46.852 54.7758 47.1398 55.3518 46.9959 55.8917L46.9839 55.8797Z" fill="#C5CBBD"/>
<path d="M45.8688 57.9076C44.7416 58.5435 42.9428 58.5195 41.8516 57.8716C40.7603 57.2116 40.7843 56.1677 41.9115 55.5438C43.0388 54.9078 44.8375 54.9318 45.9288 55.5798C47.02 56.2397 46.996 57.2836 45.8688 57.9076Z" fill="#FEC960"/>
<path d="M46.9842 55.9757C46.8882 56.3477 46.5764 56.7197 46.0728 56.9956C44.8376 57.6916 42.847 57.6676 41.6478 56.9476C41.1681 56.6597 40.8923 56.3117 40.7964 55.9517L41.0722 57.0316L41.7797 63.1872C41.8157 63.4631 42.0076 63.7391 42.3673 63.9551C43.1828 64.4351 44.5138 64.4471 45.3413 63.9911C45.725 63.7751 45.9409 63.4871 45.9768 63.1992L46.7203 57.0076L46.9961 55.9757H46.9842Z" fill="#F4BD60"/>
<path d="M45.2933 53.6719L45.2573 53.9719C45.4252 54.0199 45.5931 54.0799 45.749 54.1399L45.785 53.8039C45.6291 53.7439 45.4612 53.6959 45.2933 53.6599V53.6719Z" fill="#D5D9CF"/>
<path d="M46.4083 57.1157C46.1085 57.2836 45.7608 57.4156 45.401 57.5116C45.2331 57.5596 45.0652 57.5956 44.8854 57.6196C43.6502 57.8236 42.2591 57.6316 41.2878 57.0557C39.8968 56.2157 39.9207 54.8958 41.3598 54.0919C42.439 53.4919 43.986 53.3479 45.2931 53.6719L45.2571 53.9719C44.1059 53.6479 42.6789 53.7439 41.7075 54.2959C40.4724 54.9918 40.4364 56.1437 41.6476 56.8637C42.523 57.3916 43.8061 57.5356 44.9213 57.3196C45.1012 57.2836 45.2691 57.2357 45.437 57.1877C45.6648 57.1157 45.8687 57.0197 46.0725 56.9117C47.3077 56.2157 47.3437 55.0638 46.1325 54.3439C46.0126 54.2719 45.8807 54.2119 45.7488 54.1519L45.7847 53.8159C46.0366 53.9119 46.2764 54.0199 46.4803 54.1399C47.8713 54.9798 47.8473 56.2997 46.4083 57.1037V57.1157Z" fill="#D5D9CF"/>
<path d="M44.8853 57.6196C45.0652 57.5956 45.2331 57.5596 45.4009 57.5116L44.7654 63.7272L44.2617 63.6792L44.8853 57.6196Z" fill="#FC774D"/>
<path d="M49.55 51.836L45.8685 52.94L45.7726 53.8159L45.7366 54.1519L45.4248 57.1876C45.2569 57.2476 45.0771 57.2836 44.9092 57.3196L45.2569 53.9719L45.2929 53.6719L45.4128 52.556L49.4061 51.3561L49.55 51.836Z" fill="#FC774D"/>
<path d="M42.7505 47.1444C41.6952 47.7444 39.9924 47.7204 38.9731 47.1084C37.9418 46.4965 37.9658 45.5125 39.021 44.9126C40.0763 44.3126 41.7791 44.3366 42.7985 44.9486C43.8178 45.5605 43.8058 46.5445 42.7505 47.1444Z" fill="#C9CDBF"/>
<path d="M43.5542 46.1366L44.5256 38.0733C44.5975 37.4973 44.2617 36.9093 43.5063 36.4654C42.1152 35.6374 39.8248 35.6134 38.3858 36.4174C37.5943 36.8614 37.2345 37.4613 37.2945 38.0613L38.2179 46.1246C38.1699 45.6927 38.4337 45.2367 39.0213 44.9127C40.0766 44.3128 41.7794 44.3368 42.7987 44.9487C43.3504 45.2847 43.6022 45.7167 43.5542 46.1366Z" fill="#C9CDBF"/>
<path d="M44.0098 38.2051L43.722 39.297C43.8539 38.805 43.59 38.2891 42.9545 37.8931C41.8632 37.2331 40.0645 37.2211 38.9372 37.8571C38.2537 38.2411 37.9779 38.769 38.1098 39.285L37.834 38.1931C37.6901 37.6411 38.0019 37.0532 38.7454 36.6332C39.9805 35.9372 41.9592 35.9612 43.1703 36.6812C43.8779 37.1012 44.1657 37.6771 44.0218 38.2171L44.0098 38.2051Z" fill="#C5CBBD"/>
<path d="M42.8947 40.2329C41.7675 40.8689 39.9687 40.8449 38.8774 40.1969C37.7862 39.537 37.8102 38.4931 38.9374 37.8691C40.0646 37.2332 41.8634 37.2572 42.9547 37.9051C44.0459 38.5651 44.0219 39.609 42.8947 40.2329Z" fill="#FEC960"/>
<path d="M44.01 38.3011C43.9141 38.673 43.6023 39.045 43.0987 39.321C41.8635 40.0169 39.8849 39.9929 38.6737 39.273C38.194 38.985 37.9182 38.637 37.8223 38.2771L38.0981 39.357L38.8056 45.5125C38.8416 45.7885 39.0334 46.0645 39.3932 46.2805C40.2086 46.7604 41.5397 46.7724 42.3672 46.3045C42.7509 46.0885 42.9667 45.8005 43.0027 45.5125L43.7462 39.321L44.022 38.2891L44.01 38.3011Z" fill="#F4BD60"/>
<path d="M41.4556 35.8533V36.1413C41.6115 36.1533 41.7793 36.1772 41.9472 36.2132V35.9133C41.7913 35.8893 41.6235 35.8653 41.4556 35.8533Z" fill="#D5D9CF"/>
<path d="M43.4342 39.441C42.9545 39.705 42.3909 39.885 41.7913 39.9689C41.6234 39.9929 41.4555 40.0049 41.2877 40.0169C40.2204 40.0769 39.1171 39.8729 38.3137 39.381C36.9226 38.5531 36.9466 37.2212 38.3856 36.4172C39.2251 35.9373 40.3763 35.7573 41.4555 35.8533V36.1412C40.4962 36.0452 39.4769 36.2012 38.7334 36.6212C37.4982 37.3171 37.4623 38.4691 38.6734 39.189C39.381 39.609 40.3643 39.789 41.2996 39.729C41.4675 39.729 41.6354 39.693 41.8033 39.669C42.271 39.585 42.7147 39.441 43.0864 39.237C44.3216 38.5411 44.3576 37.3891 43.1464 36.6692C42.7986 36.4652 42.3789 36.3092 41.9352 36.2132V35.9133C42.5228 36.0092 43.0505 36.2012 43.4942 36.4652C44.8852 37.2931 44.8612 38.625 43.4222 39.429L43.4342 39.441Z" fill="#D5D9CF"/>
<path d="M41.288 40.0169C41.4559 40.0169 41.6238 39.9929 41.7917 39.9689L41.5159 46.7604L41.0122 46.7364L41.288 40.0169Z" fill="#FC774D"/>
<path d="M44.2018 33.7174L41.9833 35.4573L41.9594 35.9132V36.2132L41.8035 39.669C41.6356 39.693 41.4677 39.717 41.2998 39.729L41.4437 36.1412V35.8532L41.4797 35.2053L43.878 33.3214L44.1898 33.7174H44.2018Z" fill="#FC774D"/>
<path d="M16.2967 54.5478C15.2414 55.1478 13.5386 55.1238 12.5193 54.5119C11.5 53.8999 11.512 52.916 12.5673 52.316C13.6225 51.7161 15.3254 51.7401 16.3447 52.352C17.376 52.964 17.352 53.9479 16.2967 54.5478Z" fill="#C9CDBF"/>
<path d="M17.1001 53.5399L18.0715 45.4765C18.1434 44.9006 17.8076 44.3126 17.0522 43.8687C15.6611 43.0407 13.3707 43.0167 11.9317 43.8207C11.1402 44.2646 10.7804 44.8646 10.8404 45.4645L11.7638 53.5279C11.7158 53.096 11.9796 52.64 12.5672 52.316C13.6225 51.7161 15.3253 51.7401 16.3446 52.352C16.8963 52.688 17.1481 53.12 17.1001 53.5399Z" fill="#C9CDBF"/>
<path d="M17.5439 45.6085L17.2561 46.7004C17.388 46.2085 17.1242 45.6925 16.4887 45.2965C15.3974 44.6366 13.5986 44.6246 12.4714 45.2605C11.7879 45.6445 11.5121 46.1725 11.644 46.6884L11.3682 45.5965C11.2243 45.0446 11.536 44.4566 12.2795 44.0366C13.5147 43.3407 15.4933 43.3647 16.7045 44.0846C17.412 44.5046 17.6998 45.0806 17.5559 45.6205L17.5439 45.6085Z" fill="#C5CBBD"/>
<path d="M16.4289 47.6364C15.3016 48.2723 13.5029 48.2483 12.4116 47.6004C11.3204 46.9404 11.3444 45.8965 12.4716 45.2726C13.5988 44.6486 15.3976 44.6606 16.4888 45.3085C17.5801 45.9685 17.5561 47.0124 16.4289 47.6364Z" fill="#FEC960"/>
<path d="M17.5442 45.7045C17.4483 46.0765 17.1365 46.4485 16.6328 46.7244C15.3977 47.4204 13.407 47.3964 12.2079 46.6764C11.7282 46.3885 11.4524 46.0405 11.3564 45.6805L11.6323 46.7604L12.3398 52.916C12.3757 53.1919 12.5676 53.4679 12.9274 53.6839C13.7428 54.1639 15.0739 54.1759 15.9013 53.7199C16.2851 53.5039 16.5009 53.2159 16.5369 52.928L17.2804 46.7364L17.5562 45.7045H17.5442Z" fill="#F4BD60"/>
<path d="M14.8938 43.2447C14.7259 43.2447 14.558 43.2327 14.3901 43.2327L14.4261 43.5207C14.594 43.5207 14.7619 43.5207 14.9298 43.5447L14.8938 43.2567V43.2447Z" fill="#D5D9CF"/>
<path d="M16.9684 46.8446C16.4887 47.1086 15.9131 47.2885 15.3135 47.3725C15.1456 47.3965 14.9777 47.4085 14.8098 47.4205C13.7426 47.4805 12.6513 47.2645 11.8479 46.7846C10.4568 45.9566 10.4808 44.6247 11.9198 43.8208C12.6034 43.4368 13.4907 43.2448 14.3781 43.2328L14.4141 43.5208C13.6346 43.5208 12.8672 43.6888 12.2676 44.0368C11.0324 44.7327 10.9965 45.8846 12.2076 46.6046C12.9031 47.0246 13.8625 47.2045 14.7859 47.1446C14.9537 47.1446 15.1216 47.1206 15.2895 47.0846C15.7812 47.0126 16.2489 46.8566 16.6326 46.6406C17.8678 45.9446 17.9037 44.7927 16.6926 44.0728C16.2009 43.7728 15.5773 43.6048 14.9178 43.5448L14.8818 43.2568C15.6733 43.3168 16.4407 43.5208 17.0403 43.8808C18.4314 44.7207 18.4074 46.0406 16.9684 46.8446Z" fill="#D5D9CF"/>
<path d="M15.2896 47.0724C15.1217 47.0964 14.9538 47.1204 14.7859 47.1324L14.4142 43.5207L14.3782 43.2327L14.2943 42.3927L11.8359 40.2209L12.1717 39.8489L14.7739 42.1528L14.8819 43.2567L14.9178 43.5447L15.2776 47.0844L15.2896 47.0724Z" fill="#FC774D"/>
<path d="M15.9853 53.9359L15.4816 53.9839L14.8101 47.4204C14.9779 47.4204 15.1458 47.3964 15.3137 47.3724L15.9853 53.9359Z" fill="#FC774D"/>
</g>
<defs>
<clipPath id="clip0_4_1292">
<rect width="93.4641" height="113.475" fill="white"/>
</clipPath>
</defs>
</svg>
